<?xml version="1.0" encoding="UTF-8"?> <svg xmlns="http://www.w3.org/2000/svg" fill="none" viewBox="0 0 48 48"><path d="M23.07 16h1.6c1.12.1 2.24.34 3.27.8.19.1.4.16.61.08 1.3-.34 2.65-.26 3.96-.1 1.54.16 3.09.05 4.63-.04 1.04-.09 2.08-.06 3.13-.06.83 0 1.66.09 2.5.13 1.4.07 2.8-.06 4.19-.19.16.02.35-.07.5.04.22.19.4.43.54.68v.17c-.4.26-.8.48-1.23.67.12.28.24.55.34.83-.37.32-.86.4-1.31.56.04.27.23.62-.03.84-.38.3-.92.24-1.34.48-.13.27.05.64-.17.88-.44.31-1.03.16-1.51.36-.05.02-.08.07-.1.12-.06.23-.08.47-.2.69a.57.57 0 0 1-.42.24c-.5.04-1 0-1.48.04-.18.23-.18.55-.37.77-.61.23-1.28.06-1.91.14-.11.2-.13.43-.25.63-.14.19-.43.16-.63.19-.47.04-.93-.1-1.38-.15-.12.22-.25.46-.51.54-.5.1-.98-.1-1.46-.2-.09.16-.16.36-.34.45-.34.14-.7 0-1.03-.13a7.77 7.77 0 0 1-4.2 4.64c-.23.13-.56.18-.67.46l-.2.41c-.27-.1-.53-.2-.81-.27l-.37.59-.72-.37-.49.57-.63-.47c-.2.17-.37.35-.56.53h-.07a6.778 6.778 0 0 0-.51-.5l-.62.43-.49-.56-.7.37-.4-.6c-.27.07-.52.18-.78.27-.13-.2-.22-.47-.47-.55a8.36 8.36 0 0 1-4.4-3.68 7.402 7.402 0 0 1-.6-1.52c-.43.15-.88.33-1.33.24-.26-.06-.31-.36-.43-.56-.57.07-1.12.26-1.7.24a.5.5 0 0 1-.33-.15c-.13-.16-.15-.39-.29-.54-.6-.08-1.24.07-1.83-.1-.3-.11-.25-.5-.45-.7-.79-.25-1.68-.06-2.43-.45-.16-.17-.14-.45-.2-.67-.6-.13-1.2-.2-1.77-.4a.349.349 0 0 1-.11-.06c-.06-.26-.06-.52-.1-.77 0-.06-.06-.08-.1-.1-.43-.18-.9-.24-1.33-.46a.25.25 0 0 1-.16-.28c.02-.2.1-.38.16-.57-.51-.28-1.06-.5-1.6-.74.07-.32.15-.64.27-.94-.44-.2-.88-.4-1.25-.71v-.14c.18-.26.35-.55.62-.73.17-.03.35 0 .53 0 1.41.16 2.85.27 4.27.18 1.56-.13 3.13-.14 4.7-.1 1.72.08 3.44.27 5.16.09 1.32-.14 2.67-.26 3.98.05.3.11.57-.06.83-.16.95-.37 1.96-.59 2.98-.68Zm-3.03 1.08c.18.1.36.18.55.24.41-.07.8-.22 1.21-.3a10.698 10.698 0 0 1 1.94-.25c1.17-.02 2.33.2 3.43.58.26.1.5-.1.71-.22-1.2-.5-2.47-.78-3.77-.82-1.4 0-2.77.26-4.07.77ZM.71 16.9c-.23.08-.39.3-.54.48.2.1.42.2.63.28.79.3 1.65.2 2.47.26 1.93.03 3.86.1 5.8.16 1.07.05 2.14.04 3.21.1l.05-.16c-.61-.1-1.22-.2-1.83-.27-1.46-.1-2.93-.16-4.4-.16a.621.621 0 0 1-.45-.16c.4-.04.78-.07 1.17-.06 1.42.02 2.83.07 4.23.2 1.1.16 2.2.35 3.32.34 1.12.07 2.25-.08 3.38.01.32.04.65.09.93.25.16.18.28.41.22.66-.07.7-.7 1.18-.77 1.88-.02.24.14.43.3.58.16-.15.3-.31.44-.49-.24-.27-.21-.7.01-.97.28-.5.79-.78 1.14-1.21.2-.24.44-.48.48-.8-.05-.23-.29-.33-.48-.41a7.98 7.98 0 0 0-3.18-.38c-1.05.05-2.1.13-3.15.17-1.38-.04-2.74-.2-4.12-.24-1.35-.07-2.69.1-4.03.1-1.1.05-2.18-.01-3.27-.1-.52-.04-1.04-.13-1.56-.06Zm42.13.18c-.76-.02-1.51-.05-2.27-.1-1.68-.1-3.37.06-5.04.17-.71.06-1.42.07-2.13 0-1.43-.06-2.87-.23-4.3-.03-.53.08-1.07.19-1.5.5-.16.11-.1.32-.03.45.27.49.7.84 1.1 1.22.27.28.56.6.63 1 .03.2-.1.34-.18.5.12.18.26.35.4.5.14-.1.29-.22.32-.4.06-.51-.29-.93-.5-1.36-.17-.34-.37-.77-.18-1.14.08-.24.34-.32.56-.39.77-.17 1.56-.1 2.34-.08.62.04 1.25-.01 1.87-.02 1-.02 2-.2 2.98-.32.74-.1 1.49-.11 2.23-.16 1.07-.03 2.14-.1 3.2.02a.8.8 0 0 1-.48.15c-1.34 0-2.69.04-4.02.14-.73.05-1.45.19-2.17.29l.1.3-.01-.16c3.3-.08 6.6-.21 9.89-.27.76 0 1.52-.15 2.19-.5-.19-.29-.5-.58-.86-.52-1.38.08-2.76.26-4.14.2v.01Zm-22.06.51c.04.32.06.68-.16.94-.45.63-1.12 1.06-1.57 1.7a.97.97 0 0 0-.11.29c.4-.34.8-.7 1.27-.95a7.7 7.7 0 0 1 8.85.95c-.07-.2-.16-.4-.31-.55-.48-.57-1.13-.99-1.5-1.65-.1-.19-.04-.42-.05-.63a9.8 9.8 0 0 0-6.42-.1Zm12.47.59c.06.13.15.26.3.28.7.09 1.45.18 2.07-.18l-.09-.27c-.76.1-1.52.09-2.28.17Zm-20.81-.14-.05.24c.27.13.56.27.88.25.4-.01.82-.02 1.23-.1.13 0 .18-.15.24-.26-.76-.08-1.53-.11-2.3-.13Zm-11.04.12c-.15.22-.3.48-.3.75.19.17.45.2.68.27.7.2 1.41.24 2.13.23 1.13.03 2.26-.07 3.39-.1 1.8-.05 3.6-.17 5.39-.22l-.05.15.18-.09.03-.38c-.33-.18-.66-.44-1.06-.41-1.92-.05-3.85-.07-5.77-.11-1.54-.02-3.08-.1-4.62-.1v.01Zm13.45 0c-.05.123-.09.25-.12.38.1.07.2.17.33.22.18 0 .36-.08.54-.12-.2.2-.57.32-.55.67.11.03.23.06.34.06.3.01.52-.19.78-.3-.24.29-.67.43-.7.84.2.09.43.15.65.08.3-.12.54-.31.8-.5-.22.29-.5.52-.73.8-.1.13.03.34.19.34.41.03.69-.32.97-.57-.16.35-.48.64-.45 1.05l.4.02.31-.28c-.03.16-.13.36-.04.52.17.18.45.09.67.08-.15-.26-.34-.53-.25-.84.08-.35.3-.63.47-.93.17-.28.37-.59.3-.93-.11-.2-.33-.29-.53-.36-.8-.24-1.64-.17-2.46-.2l-.92-.04v.01Zm14.91.23c-.24.08-.56.22-.54.52.1.69.74 1.17.8 1.87.01.26-.17.47-.27.7.22-.02.5.06.67-.12.1-.15 0-.34-.02-.5l.28.26.41-.02c.03-.4-.25-.68-.43-1 .21.17.4.38.66.48.17.08.35.01.51-.01-.03-.14-.02-.3-.12-.4-.2-.22-.42-.44-.6-.68.34.26.7.63 1.17.51.15 0 .24-.14.21-.28-.19-.24-.44-.42-.66-.63.17.08.34.17.52.24.19.08.4.01.59-.02 0-.35-.35-.5-.57-.69.24.05.58.26.78 0 .18-.11.05-.3.01-.47-1.13.1-2.29-.05-3.4.24Zm6.37-.03c-.36-.01-.68.19-.97.39 1.4.08 2.8.14 4.2.2 1.65.06 3.3.16 4.96.17.9.03 1.81.04 2.67-.24-.09-.24-.23-.46-.35-.68-3.5 0-7 .14-10.5.16h-.01Zm-21.7.27c-.43.07-.86.09-1.28.17-.19.05-.24.28-.2.45.08.12.23.18.36.23.38-.02.75-.13 1.12-.2.19-.04.4-.06.55-.18a.33.33 0 0 0-.1-.23c-.13-.1-.27-.27-.46-.24h.01Zm19 .01c-.18.1-.4.24-.4.46.13.12.33.14.5.18l.98.2c.22.04.4-.12.58-.22-.06-.17-.05-.43-.27-.47-.46-.1-.93-.14-1.4-.15h.01Zm-9.94.3c-1.5.1-3.01.64-4.14 1.66A4.24 4.24 0 0 0 18 22.7a3.7 3.7 0 0 0 .45 2.73c.43.7 1.03 1.3 1.74 1.72 1.3.8 2.82 1.15 4.34 1.02a6.66 6.66 0 0 0 4.5-2.09c.64-.7 1-1.6 1.02-2.54a3.95 3.95 0 0 0-1.22-2.76 6.96 6.96 0 0 0-5.35-1.85l.01.01Zm11.64.03c.03.2.04.42.03.63 1.74.24 3.49.35 5.23.52 1.14.08 2.27.24 3.4.31.67-.01 1.43.08 2.03-.3-.03-.19-.06-.4-.17-.56-.17-.1-.38-.06-.57-.08-2.88-.17-5.76-.28-8.64-.45-.44-.02-.87-.08-1.31-.07Zm-24 .42c-2.79.21-5.58.27-8.37.4-.11.2-.22.42-.28.65.73.31 1.55.38 2.34.3 2.8-.24 5.6-.6 8.4-.86-.25.28-.66.29-1.01.33-2.55.3-5.1.63-7.64.9-.15.02-.4 0-.43.2-.1.2-.04.46.19.53.8.23 1.63.28 2.44.13 1.25-.2 2.49-.47 3.73-.74 1.03-.2 2.05-.42 3.09-.59a2.797 2.797 0 0 1-.47-.3l.15-.47c-.22-.2-.42-.45-.72-.53-.48-.02-.95.03-1.43.05h.01Zm2.86.21c-.2.05-.42.12-.6.24-.08.12-.1.27-.13.4.3.12.62.28.94.18.26-.09.5-.2.75-.3.2-.1.46-.16.48-.43-.16-.08-.31-.16-.48-.21-.33-.06-.65.04-.96.12Zm19.06-.12c-.22.05-.45.16-.49.4.41.2.83.4 1.26.55.32.1.64-.08.93-.18-.05-.13-.07-.27-.13-.39-.1-.11-.26-.13-.38-.18-.39-.12-.78-.26-1.2-.2h.01Zm1.72.34.05.61c2.37.35 4.72.77 7.09 1.13.74.08 1.5.08 2.24-.05.32-.07.1-.48.06-.7-1.08-.16-2.17-.24-3.26-.38-1.52-.15-3.04-.32-4.55-.49-.54-.06-1.08-.17-1.63-.12Zm-19.68.42c-.35.16-.7.32-1.03.5l.08.39c.27.1.55.2.84.1.36-.14.7-.34 1.03-.56.12-.08.1-.3-.04-.36-.26-.15-.6-.22-.88-.07Zm16.96.06c-.13.05-.14.2-.18.31.35.21.7.45 1.08.62.24.1.51.05.74-.05.16-.06.24-.23.23-.4-.03-.09-.14-.11-.21-.16-.33-.16-.65-.32-.99-.45-.23-.05-.46.03-.67.13Zm2 .47c-.05.1-.06.2-.09.31.1 0 .2-.01.3.01 1.63.46 3.27.84 4.9 1.29.98.27 2.01.5 3.04.37.32-.05.35-.44.4-.69-.41-.12-.84-.19-1.26-.28l-5-.91c-.6-.1-1.22-.21-1.84-.2-.15.01-.33 0-.45.1Zm-22.62.51c-1.8.36-3.56.77-5.34 1.16 0 .23.07.5.32.57.62.15 1.27.18 1.9.13.7-.1 1.36-.35 2.04-.54 1.27-.36 2.54-.76 3.8-1.14-.08-.22-.13-.45-.19-.68-.86.1-1.69.33-2.53.5Zm4.6-.36c-.36.2-.69.45-1.03.67.03.11.02.27.14.35.15.03.32.03.47.03.48-.02.8-.42 1.12-.73.14-.1.04-.3-.1-.34a1.598 1.598 0 0 0-.6.02Zm15.34-.02c-.16.03-.22.27-.1.37.25.24.5.48.8.65.25.1.53.04.79.01.11-.06.1-.23.15-.33l-.9-.6c-.2-.18-.5-.1-.74-.1Zm2.07.7c.97.38 1.93.8 2.89 1.22.53.22 1.04.48 1.58.69.7.24 1.48.3 2.2.14.18-.11.25-.33.33-.52-.28-.12-.57-.19-.85-.28l-4.6-1.34c-.31-.08-.62-.18-.95-.22-.21.07-.4.21-.6.3v.01Zm-16.6-.17c-.3.2-.53.47-.77.72.07.13.12.3.25.4.2.05.45.08.6-.1a3 3 0 0 0 .68-.9c-.22-.16-.5-.23-.75-.12h-.01Zm13.6.23c.16.3.39.57.64.8.17.17.43.09.64.13.04-.16.18-.3.15-.47-.09-.2-.28-.31-.42-.45-.18-.15-.37-.35-.62-.29-.17-.02-.43.08-.4.28h.01Zm-17.4.34c-.91.32-1.85.6-2.76.94-.51.2-1.05.32-1.54.57.05.16.1.33.2.46.16.1.36.09.54.1.64 0 1.34.05 1.93-.26.87-.42 1.71-.88 2.58-1.3.33-.16.66-.34 1.02-.46-.08-.16-.1-.4-.31-.43-.58-.04-1.11.23-1.65.38h-.01Zm4.55-.2a4.201 4.201 0 0 0-.45.69c-.05.09-.1.2-.04.3.08.2.32.25.5.3.1-.5.27-.99.5-1.44-.18.04-.37.04-.51.15Zm12.28-.16c.22.46.43.92.51 1.43.24 0 .51-.15.55-.4-.13-.3-.3-.6-.5-.85-.15-.15-.38-.14-.56-.18Zm3.25.06c-.08.2-.16.44-.4.53 1.07.55 2.01 1.3 3.03 1.93.36.22.79.27 1.2.32.34.03.7.09 1.02-.04.1-.12.1-.29.12-.43-1.31-.64-2.63-1.27-3.95-1.88-.33-.16-.65-.36-1.02-.43Zm-18.52.75c-1.18.63-2.38 1.22-3.55 1.86 0 .2.1.41.33.44.51.04 1.03-.05 1.52-.2.63-.28 1.14-.73 1.7-1.11.48-.36 1-.68 1.4-1.14a1.7 1.7 0 0 0-1.4.15Zm17.5-.19c-.18.17-.24.43-.42.59.86.53 1.56 1.28 2.4 1.83.3.2.66.23 1 .3.27.1.54-.04.8-.15-.05-.12-.12-.24-.24-.3l-2.69-2.02a1.1 1.1 0 0 0-.86-.25h.01Zm-17.9 1.76c-.32.26-.67.5-.9.84.46.4 1.17.27 1.63-.07.75-.56 1.32-1.32 2.08-1.86-.34-.1-.78.03-1.01-.33-.62.45-1.2.94-1.8 1.42Zm16.9-1.17-.34.4c.54.42 1.04.9 1.54 1.36.3.26.6.54.99.64.2.09.41 0 .6-.06-.02-.3-.28-.46-.48-.63-.56-.48-1.1-1-1.67-1.48-.17-.17-.41-.19-.63-.23h-.01Zm-14.13.35c-.6.53-1.13 1.15-1.69 1.73.09.08.17.17.28.2.33.04.67 0 .99-.13.46-.2.73-.67 1.08-1.02l-.05-.6c-.2-.05-.4-.13-.61-.18Zm13.46.15-.1.98c.36.28.63.66 1.05.86.2.07.4.12.62.1.18.06.27-.1.36-.2-.4-.45-.85-.85-1.24-1.3-.2-.2-.39-.45-.7-.44h.01ZM17.2 25.04c.13.25.5.23.74.27-.1-.35-.2-.7-.32-1.04-.19.22-.49.45-.42.77Zm13.11-.47c-.1.3-.21.59-.33.88.24-.02.54-.02.67-.26.07-.26-.16-.47-.34-.62Zm-14.13.91a7.27 7.27 0 0 0 4.17 4c.25-.42.56-.82.68-1.3-.68-.44-1.4-.83-2-1.38-.38-.31-.66-.73-.97-1.1-.14-.1-.33-.09-.49-.13a1.4 1.4 0 0 1-.64-.36l-.75.27Zm14.74-.14c-.12.1-.23.21-.36.28-.22.1-.48.06-.7.15-.26.29-.43.64-.71.91-.42.4-.88.76-1.37 1.05-.24.14-.5.26-.7.45-.08.1-.02.23.02.33.14.3.32.57.48.85a6.27 6.27 0 0 0 2.02-1.2 6.32 6.32 0 0 0 1.88-2.6l-.56-.22Zm-15.34.14c.1.24.17.5.3.72.35.63.69 1.28 1.21 1.79.5.48 1 .97 1.6 1.32.45.26.9.52 1.4.7.07-.13.13-.26.18-.4-.5-.23-1-.45-1.46-.76-.49-.28-.89-.68-1.3-1.05a6.56 6.56 0 0 1-1.52-2.32h-.41Zm16.05.11a7.53 7.53 0 0 1-4 3.92l.2.43a7.1 7.1 0 0 0 2.55-1.64 6.35 6.35 0 0 0 1.7-2.67c-.15 0-.3-.02-.45-.04Zm-4.74 2.2a7.9 7.9 0 0 1-5.83-.01c-.52-.18-.97-.5-1.44-.77.45.44 1.1.59 1.54 1.04.11.12.04.3 0 .43-.22.48-.53.92-.76 1.4-.1.2-.08.46.01.67.04.07.11.14.2.11.26-.06.5-.24.62-.48.3-.51.36-1.12.64-1.64l.14.05c-.1.47-.31.9-.48 1.35-.09.27-.19.6 0 .85.05.1.18.18.29.13.25-.1.46-.32.54-.6.15-.51.14-1.06.3-1.58h.14c.02.4-.12.78-.21 1.17-.05.25-.15.51-.08.78.08.16.22.3.35.43.14-.09.27-.18.4-.29.13-.16.19-.38.2-.59.03-.46-.01-.93.06-1.39h.15c.03.55-.18 1.08-.15 1.62 0 .3.21.54.45.7.25-.04.43-.28.52-.5.07-.63-.24-1.24-.1-1.86.04.06.1.1.12.17.1.52 0 1.07.13 1.58.06.27.34.41.55.56l.2-.26c.22-.23.1-.57.05-.84-.08-.43-.3-.86-.17-1.3.3.46.2 1.07.38 1.59.07.34.41.5.69.65.1-.19.24-.37.27-.59-.08-.62-.54-1.14-.5-1.78.36.43.35 1.03.62 1.51.14.32.49.47.8.56.1-.23.2-.5.1-.74-.17-.4-.39-.77-.6-1.14-.09-.16-.24-.3-.26-.49.1-.32.44-.43.68-.62.52-.37 1.11-.68 1.49-1.2a5.86 5.86 0 0 1-2.05 1.33v-.01Z" fill="#000"></path><path d="M23.33 19.02a6.9 6.9 0 0 1 5.16 1.55 4.16 4.16 0 0 1 1.44 2.54 3.94 3.94 0 0 1-1.27 3.24 6.1 6.1 0 0 1-2.49 1.45 7.221 7.221 0 0 1-6.16-.88 4.34 4.34 0 0 1-1.97-3.3c-.06-.94.36-1.86.97-2.56a6.41 6.41 0 0 1 4.32-2.04Zm-.61 1.16c-.88.19-1.8.53-2.34 1.28.14.19.33.34.46.54.02 1.07.04 2.15-.01 3.23-.13.2-.31.35-.45.53a5.17 5.17 0 0 0 3.07 1.26c.9.06 1.83.02 2.69-.28.3-.11.58-.28.84-.48.37-.33.64-.8.59-1.31.01-.7-.56-1.21-1.1-1.57v-.09c.36-.25.77-.53.88-.98a1.398 1.398 0 0 0-.17-1.1c-.33-.52-.9-.8-1.46-.97a6.5 6.5 0 0 0-3-.06Z" fill="#000"></path><path d="M23.6 20.53c.49-.05 1.03-.08 1.46.21.38.25.49.75.46 1.18.01.5-.24 1.05-.75 1.22-.47.13-.98.14-1.45-.02a1.1 1.1 0 0 1-.73-.97c-.07-.44-.04-.95.29-1.28.2-.18.45-.32.72-.34Zm.11 3.11c.65-.09 1.49-.01 1.84.63.24.57.24 1.29-.1 1.82-.33.46-.93.54-1.45.52a1.9 1.9 0 0 1-1.05-.35c-.44-.39-.47-1.05-.4-1.6.09-.55.61-.96 1.16-1.02Z" fill="#000"></path><path d="M20.04 17.08c1.3-.5 2.68-.77 4.07-.77 1.3.04 2.57.32 3.77.82-.2.13-.45.33-.7.22a10.1 10.1 0 0 0-3.44-.58c-.65.04-1.3.1-1.94.25-.4.08-.8.23-1.21.3-.2-.06-.37-.15-.55-.24ZM.7 16.9c.53-.07 1.05.02 1.57.05 1.09.1 2.18.16 3.27.12 1.34-.02 2.68-.18 4.03-.1 1.38.04 2.74.19 4.12.23 1.05-.04 2.1-.12 3.15-.17a7.96 7.96 0 0 1 3.18.38c.19.08.43.18.48.41-.04.32-.28.56-.48.8-.35.43-.86.72-1.14 1.2-.22.29-.25.7 0 .98-.14.18-.29.34-.45.5-.16-.16-.32-.35-.3-.6.08-.69.7-1.18.77-1.87.06-.25-.06-.48-.22-.66a2.3 2.3 0 0 0-.93-.25c-1.13-.1-2.26.06-3.38-.01-1.12 0-2.22-.18-3.32-.33-1.4-.14-2.81-.2-4.23-.21-.39-.01-.78.02-1.17.06.13.1.29.17.45.16 1.47.02 2.94.04 4.4.16.61.06 1.22.17 1.83.27l-.05.17c-1.07-.07-2.14-.06-3.22-.1-1.93-.082-3.86-.138-5.79-.17-.82-.05-1.68.04-2.47-.27a5.673 5.673 0 0 1-.63-.27c.15-.18.3-.4.54-.48H.7Zm42.14.18c1.38.05 2.76-.13 4.14-.2.37-.07.67.22.86.5-.67.36-1.43.51-2.19.51-3.3.05-6.6.2-9.9.27l.01.17-.1-.31c.73-.1 1.45-.24 2.18-.29 1.33-.1 2.68-.13 4.02-.14.17 0 .34-.05.49-.15-1.07-.11-2.14-.05-3.21-.03-.74.06-1.49.07-2.23.16-.99.13-1.98.31-2.98.33-.62 0-1.25.06-1.87.02-.78-.02-1.57-.09-2.34.08-.22.07-.48.15-.56.39-.19.37.01.8.19 1.14.2.43.55.85.49 1.36-.03.18-.18.3-.32.4a4.955 4.955 0 0 1-.4-.5c.08-.16.21-.3.18-.5-.07-.4-.36-.72-.63-1-.4-.38-.83-.73-1.1-1.22-.07-.13-.13-.34.02-.45.44-.31.98-.42 1.5-.5 1.44-.2 2.88-.03 4.31.03.7.07 1.42.06 2.13 0 1.67-.11 3.36-.28 5.04-.17.75.04 1.51.08 2.27.1Z" fill="#fff"></path><path d="M20.78 17.6a9.8 9.8 0 0 1 6.42.1c.01.2-.05.43.05.62.37.66 1.02 1.08 1.5 1.65.15.15.24.35.31.55a7.7 7.7 0 0 0-8.85-.95c-.46.26-.87.6-1.27.95a1 1 0 0 1 .11-.3c.45-.63 1.12-1.06 1.57-1.69.22-.26.2-.62.16-.94v.01Zm12.47.58c.76-.08 1.52-.08 2.28-.17l.1.27c-.63.36-1.38.27-2.07.18-.16-.02-.25-.15-.31-.28Zm-20.81-.14c.77.02 1.54.05 2.3.13-.06.1-.1.25-.24.27-.4.07-.82.08-1.23.1-.32.01-.6-.13-.88-.26l.05-.24Zm-11.04.12c1.54 0 3.08.07 4.62.09l5.77.1c.4-.02.73.24 1.06.42l-.03.38-.18.09.05-.15c-1.8.05-3.6.17-5.39.22-1.13.03-2.26.13-3.4.1-.7.01-1.43-.03-2.12-.23-.23-.07-.5-.1-.67-.27 0-.27.14-.53.29-.75Zm13.45-.01.92.03c.82.04 1.67-.03 2.46.21.2.07.42.16.52.36.08.34-.12.65-.29.93-.16.3-.39.58-.47.93-.1.31.1.58.25.84-.22 0-.5.1-.67-.08-.09-.16.01-.36.04-.52l-.32.28-.39-.02c-.03-.41.29-.7.45-1.05-.28.25-.56.6-.97.57-.16 0-.29-.21-.19-.34.23-.28.51-.51.72-.8-.25.19-.5.38-.8.5a.93.93 0 0 1-.64-.08c.03-.4.46-.55.7-.83-.26.1-.49.3-.78.29-.11 0-.23-.03-.34-.06-.02-.35.34-.47.55-.67-.18.04-.36.12-.54.12-.13-.05-.22-.15-.33-.22l.12-.39Zm14.91.24c1.11-.3 2.27-.15 3.4-.24.04.16.17.36-.01.48-.2.25-.54.04-.78 0 .22.19.57.33.57.68-.2.03-.4.1-.6.02l-.51-.24c.22.21.47.39.66.63.03.14-.06.28-.21.28-.47.12-.83-.25-1.17-.5.18.23.4.45.6.66.1.11.09.27.12.4-.16.03-.34.1-.5.02-.26-.1-.46-.3-.67-.48.18.32.46.6.43 1l-.41.02-.28-.26c.02.16.12.35.02.5-.17.18-.45.1-.67.13.1-.24.28-.45.28-.71-.07-.7-.72-1.18-.81-1.87-.02-.3.3-.44.54-.52Zm6.37-.03c3.5-.02 7-.16 10.5-.16.13.22.27.44.36.69-.86.27-1.77.26-2.67.23-1.65 0-3.31-.11-4.97-.17-1.4-.06-2.8-.12-4.19-.2.29-.2.6-.4.97-.4v.01Z" fill="#fff"></path><path d="M14.42 18.63c.19-.03.33.13.46.24.06.06.1.14.1.23-.16.12-.37.14-.55.18-.37.07-.74.18-1.12.2a.8.8 0 0 1-.37-.23c-.03-.17.02-.4.21-.45.42-.08.85-.1 1.27-.17Zm19 .01c.47 0 .94.06 1.4.15.22.04.21.3.27.47-.18.1-.36.26-.58.21-.33-.05-.65-.13-.97-.19-.18-.04-.38-.06-.52-.18.01-.22.23-.35.4-.46Zm-9.93.3a6.96 6.96 0 0 1 5.35 1.85 3.898 3.898 0 0 1 1.22 2.76 3.8 3.8 0 0 1-1.01 2.54 6.66 6.66 0 0 1-4.51 2.1 7.15 7.15 0 0 1-4.34-1.03c-.7-.44-1.32-1-1.74-1.72a3.7 3.7 0 0 1-.45-2.73 4.2 4.2 0 0 1 1.34-2.11 6.92 6.92 0 0 1 4.14-1.66Zm-.16.08c-1.65.1-3.2.83-4.32 2.04a3.57 3.57 0 0 0-.97 2.56c.04 1.35.9 2.55 1.97 3.3a7.23 7.23 0 0 0 6.16.88 6.1 6.1 0 0 0 2.5-1.45 3.94 3.94 0 0 0 1.26-3.24c-.13-1-.7-1.89-1.44-2.54a6.9 6.9 0 0 0-5.16-1.55Zm11.8-.05c.44-.01.87.05 1.3.07 2.89.17 5.77.28 8.65.45.19.02.4-.01.57.08.11.17.14.37.17.57-.6.37-1.36.28-2.03.3-1.13-.08-2.26-.24-3.4-.32-1.74-.17-3.5-.28-5.23-.52.01-.2 0-.42-.03-.63Zm-24.01.43c.48-.03.95-.08 1.43-.06.3.08.5.33.72.53l-.15.47c.15.12.3.22.47.3-1.04.17-2.06.39-3.1.59a66.076 66.076 0 0 1-3.72.74 5.3 5.3 0 0 1-2.44-.13c-.23-.07-.29-.33-.2-.53.04-.2.29-.18.44-.2 2.55-.27 5.1-.6 7.64-.9.35-.04.76-.05 1.02-.33-2.8.26-5.6.62-8.41.87-.8.08-1.6 0-2.34-.3.06-.24.17-.46.28-.67 2.8-.12 5.58-.18 8.36-.39v.01Z" fill="#fff"></path><path d="M14 19.6c.3-.08.62-.18.95-.12.17.05.32.13.48.21-.02.27-.28.33-.48.42-.25.1-.49.22-.75.31-.32.1-.65-.06-.94-.17.03-.14.05-.3.14-.4.17-.13.38-.2.6-.25Zm19.05-.12c.4-.06.8.08 1.19.2.12.05.28.07.38.18.06.12.08.26.13.39-.3.1-.6.28-.93.18-.43-.15-.85-.34-1.26-.54.04-.25.27-.36.49-.41Zm1.72.34c.55-.05 1.09.06 1.63.12l4.55.5c1.09.13 2.18.2 3.26.37.03.22.26.63-.06.7-.74.13-1.5.13-2.24.05-2.37-.36-4.72-.78-7.1-1.13 0-.2-.02-.4-.04-.61Zm-12.05.36c1-.21 2.02-.2 3 .06a2.5 2.5 0 0 1 1.46.96c.22.32.25.74.17 1.1-.11.46-.53.74-.88 1v.08c.54.36 1.11.86 1.1 1.57.05.5-.22.98-.59 1.31-.26.2-.54.37-.84.48a6.8 6.8 0 0 1-2.69.28 5.17 5.17 0 0 1-3.07-1.26c.14-.18.32-.34.45-.53.05-1.08.03-2.16 0-3.23-.12-.2-.3-.35-.45-.54.54-.75 1.46-1.1 2.34-1.28Zm.88.35c-.27.02-.52.16-.72.34-.33.33-.36.84-.3 1.28.04.43.33.84.74.97.47.16.98.15 1.45.02.5-.17.76-.72.75-1.23.03-.42-.08-.92-.46-1.17-.43-.29-.97-.26-1.46-.2v-.01Zm.11 3.1c-.55.07-1.07.48-1.17 1.04-.06.54-.03 1.2.41 1.6.3.23.68.31 1.05.34.52.02 1.12-.06 1.44-.52.35-.53.35-1.25.11-1.82-.35-.64-1.2-.72-1.84-.63v-.01Zm-8.62-3.39c.28-.15.62-.08.88.07.13.07.16.28.04.36-.33.22-.67.42-1.03.57-.29.09-.57-.02-.84-.11l-.08-.39c.34-.18.68-.34 1.03-.5Zm16.96.06c.2-.1.44-.18.67-.13.34.13.66.3.99.45.07.05.18.07.21.17 0 .16-.07.33-.23.4-.23.09-.5.15-.74.04-.38-.17-.73-.4-1.08-.62.04-.1.05-.26.18-.31Zm2 .47c.12-.1.3-.09.45-.1.62-.01 1.24.1 1.85.2l5 .91c.41.09.84.16 1.25.28-.05.25-.08.64-.4.69a7.78 7.78 0 0 1-3.04-.37c-1.63-.45-3.27-.83-4.9-1.29a.869.869 0 0 0-.3-.01c.03-.1.04-.21.09-.3v-.01Zm-22.62.51c.84-.17 1.67-.4 2.53-.5.06.23.1.46.2.68-1.27.38-2.54.78-3.81 1.14-.68.2-1.34.44-2.04.54-.63.05-1.28.02-1.9-.13-.25-.07-.32-.34-.32-.57 1.78-.39 3.55-.8 5.34-1.16Zm4.6-.36c.2-.05.4-.04.6-.02.14.04.24.25.1.34-.31.31-.64.7-1.12.73-.15 0-.32 0-.47-.03-.12-.08-.1-.24-.14-.35.34-.22.67-.46 1.03-.67Zm15.34-.02c.24 0 .54-.07.74.1l.9.6c-.05.1-.04.27-.15.33-.26.03-.54.09-.8 0a4.944 4.944 0 0 1-.79-.66c-.12-.1-.06-.34.1-.37Zm2.07.7c.2-.1.39-.24.6-.31.33.04.64.14.95.22l4.6 1.34c.28.09.57.16.85.28-.08.2-.15.4-.33.52-.72.17-1.5.1-2.2-.14-.54-.2-1.05-.47-1.58-.7-.96-.4-1.92-.83-2.9-1.21h.01Zm-16.59-.17c.24-.1.53-.04.75.11a2.999 2.999 0 0 1-.68.91c-.15.18-.4.15-.6.1-.13-.1-.18-.27-.25-.4.24-.25.48-.52.78-.72Zm13.59.23c-.04-.2.22-.3.39-.28.25-.06.44.14.62.29.14.14.33.26.42.45.03.17-.1.31-.15.47-.21-.04-.47.04-.64-.14-.25-.22-.48-.5-.64-.79ZM13.05 22c.54-.15 1.07-.42 1.65-.38.2.03.23.27.3.43-.35.12-.68.3-1.01.47-.87.41-1.71.87-2.58 1.29-.6.31-1.29.26-1.93.27-.18-.02-.38 0-.54-.1-.1-.14-.15-.31-.2-.47.49-.25 1.03-.36 1.54-.57.91-.34 1.85-.62 2.77-.94Zm4.54-.2c.14-.11.33-.11.5-.15-.22.45-.39.93-.48 1.43-.2-.04-.43-.09-.51-.3-.06-.1 0-.2.04-.3.13-.23.27-.47.45-.68Zm12.28-.16c.18.04.41.03.55.18.2.27.4.55.5.86-.03.24-.3.4-.54.39-.08-.5-.3-.97-.51-1.43Zm3.25.06c.37.07.69.27 1.02.43 1.32.61 2.64 1.24 3.95 1.88-.02.14-.02.3-.12.43-.32.13-.68.07-1.02.04-.41-.05-.84-.1-1.2-.32-1.02-.63-1.96-1.38-3.02-1.93.23-.09.3-.32.4-.53h-.01Zm-18.52.75c.41-.26.93-.3 1.4-.15-.4.46-.92.78-1.4 1.14-.56.38-1.07.83-1.7 1.1-.49.16-1 .25-1.52.21-.22-.03-.32-.24-.33-.44 1.17-.64 2.37-1.23 3.55-1.86Zm17.5-.19c.3-.06.6.07.85.25l2.7 2.02c.11.06.18.18.23.3-.26.11-.53.24-.8.16-.34-.08-.7-.11-1-.31-.84-.55-1.54-1.3-2.4-1.83.18-.16.24-.42.41-.59h.01Zm-17.9 1.76c.6-.48 1.18-.97 1.8-1.42.23.36.67.23 1.01.33-.76.54-1.33 1.3-2.08 1.86-.46.34-1.17.47-1.63.07.23-.35.58-.58.9-.84Zm16.9-1.17c.23.04.47.06.64.23.57.48 1.1 1 1.68 1.48.19.17.45.33.47.63-.19.07-.4.15-.6.06-.4-.1-.7-.38-1-.64-.486-.48-.997-.933-1.53-1.36l.35-.4h-.01Zm-14.13.35.6.18.06.6c-.35.35-.62.81-1.08 1.02-.32.12-.66.17-.99.12-.11-.02-.2-.11-.28-.19.56-.58 1.08-1.2 1.69-1.73Zm13.46.15c.3 0 .5.23.69.43.39.46.84.86 1.24 1.3-.09.11-.18.27-.36.21-.21.02-.42-.03-.62-.1-.42-.2-.7-.58-1.05-.86l.1-.98ZM17.2 25.04c-.07-.32.23-.55.42-.77.13.34.22.7.32 1.04-.24-.04-.6-.02-.74-.27Zm13.11-.47c.18.15.41.36.34.62-.13.24-.43.24-.67.26l.33-.88Zm-14.13.91.75-.27c.2.16.4.32.64.36.16.04.35.03.5.12.3.38.58.8.97 1.11.6.55 1.31.94 1.99 1.39-.12.47-.43.87-.68 1.28a7.271 7.271 0 0 1-4.17-3.99Zm14.74-.14.56.22a6.369 6.369 0 0 1-1.88 2.6c-.58.53-1.29.93-2.02 1.2-.16-.28-.34-.56-.48-.85-.04-.1-.1-.23-.02-.33.2-.2.46-.3.7-.45.5-.3.95-.65 1.37-1.05.28-.27.46-.62.71-.9.22-.1.48-.06.7-.16.13-.07.24-.18.36-.28Z" fill="#fff"></path><path d="M15.58 25.48h.4a6.701 6.701 0 0 0 1.53 2.32c.41.37.81.77 1.3 1.05.46.3.96.53 1.46.76-.05.14-.11.27-.18.4-.49-.2-.95-.43-1.4-.7-.6-.36-1.1-.84-1.6-1.32-.52-.5-.86-1.16-1.2-1.79-.14-.23-.22-.48-.3-.72h-.01Zm16.05.12.45.03a6.5 6.5 0 0 1-1.7 2.67 7.1 7.1 0 0 1-2.54 1.64l-.2-.43a7.53 7.53 0 0 0 4-3.92l-.01.01Z" fill="#fff"></path><path d="M26.89 27.8c.77-.3 1.47-.75 2.05-1.34-.38.53-.97.84-1.5 1.21-.23.19-.57.3-.67.62.02.19.17.33.26.5.21.36.43.74.6 1.13.1.25 0 .5-.1.74-.31-.1-.66-.24-.8-.56-.27-.48-.26-1.08-.63-1.51-.03.64.43 1.16.51 1.78-.03.22-.17.4-.27.6-.28-.16-.62-.32-.69-.66-.19-.52-.07-1.13-.38-1.6-.13.45.09.88.18 1.31.04.27.16.61-.05.84l-.21.26c-.21-.15-.49-.29-.55-.56-.12-.51-.04-1.06-.13-1.58-.03-.06-.08-.11-.12-.17-.14.62.17 1.23.1 1.86-.09.22-.27.46-.52.5-.23-.16-.45-.4-.45-.7-.03-.54.18-1.07.15-1.62h-.15c-.07.46-.03.93-.06 1.4 0 .21-.07.41-.2.58-.13.11-.26.2-.4.29-.13-.14-.27-.27-.35-.43-.07-.27.02-.53.08-.78.1-.39.23-.77.21-1.17h-.13c-.17.52-.16 1.07-.3 1.59a.941.941 0 0 1-.55.59c-.11.05-.24-.03-.28-.13-.2-.25-.1-.58-.01-.85.17-.44.38-.88.48-1.35l-.14-.05c-.28.52-.34 1.13-.64 1.64a.96.96 0 0 1-.62.48c-.09.03-.16-.04-.2-.11a.77.77 0 0 1 0-.67c.22-.48.53-.92.75-1.4.04-.14.11-.31 0-.43-.44-.45-1.09-.6-1.54-1.04.47.27.92.59 1.44.77a7.9 7.9 0 0 0 5.83.02Z" fill="#fff"></path></svg> 