<?xml version="1.0" encoding="UTF-8"?> <svg xmlns="http://www.w3.org/2000/svg" fill="none" viewBox="0 0 48 48"><path d="M37.037 24c0 7.205-5.832 13.037-13.037 13.037V24h13.037ZM24 10.963V24H10.963c0-7.205 5.832-13.037 13.037-13.037Z" fill="#0166B1"></path><path d="M24 10.963c7.205 0 13.037 5.832 13.037 13.037H24V10.963ZM10.963 24H24v13.037c-7.205 0-13.037-5.832-13.037-13.037Z" fill="#fff"></path><path d="M24 10.963v.715c6.794 0 12.322 5.527 12.322 12.322h.715c0-7.2-5.837-13.037-13.037-13.037Zm0 25.36c-6.794 0-12.322-5.528-12.322-12.323h-.715c0 7.2 5.837 13.037 13.037 13.037M24 2C11.85 2 2 11.85 2 24s9.85 22 22 22 22-9.85 22-22S36.15 2 24 2Zm20.57 22c0 11.36-9.21 20.57-20.57 20.57S3.43 35.36 3.43 24 12.64 3.43 24 3.43 44.57 12.64 44.57 24Z" fill="#6F6F6F"></path><path d="M24 10.963v.715c6.794 0 12.322 5.527 12.322 12.322h.715c0-7.2-5.837-13.037-13.037-13.037Zm0 25.36c-6.794 0-12.322-5.528-12.322-12.323h-.715c0 7.2 5.837 13.037 13.037 13.037M24 2C11.85 2 2 11.85 2 24s9.85 22 22 22 22-9.85 22-22S36.15 2 24 2Zm20.57 22c0 11.36-9.21 20.57-20.57 20.57S3.43 35.36 3.43 24 12.64 3.43 24 3.43 44.57 12.64 44.57 24Z" fill="#6F6F6F"></path><path d="M14.598 13.387c.704-.736 1.102-1.585.398-2.396-.382-.44-1.024-.537-1.557-.32l-.053.02.017-.046c.079-.209.13-.876-.443-1.337a1.33 1.33 0 0 0-.984-.272c-.66.067-1.168.515-2.55 2.046a33.173 33.173 0 0 0-1.39 1.663l3.798 3.578c1.259-1.383 1.772-1.898 2.764-2.936Zm-4.956-.876c.766-.929 1.578-1.772 1.947-2.106.116-.105.243-.21.396-.251.25-.068.507.108.565.362.058.255-.103.498-.283.698a135.1 135.1 0 0 1-1.888 1.994l-.737-.697Zm1.488 1.402s1.445-1.517 1.916-2.002c.188-.193.308-.31.437-.372.167-.081.35-.098.512.01.16.106.234.29.194.472-.048.217-.226.424-.374.582L11.9 14.638l-.77-.725Zm13.304-4.794 1.216-2.705.078-.24-.022.25.128 3.616c.426.04.867.098 1.301.17l-.198-5.354a27.174 27.174 0 0 0-1.817-.14l-1.198 2.953-.042.22-.043-.22-1.196-2.953a27.19 27.19 0 0 0-1.817.14l-.198 5.354a18.7 18.7 0 0 1 1.301-.17l.128-3.616-.022-.25.078.24 1.216 2.705h1.107Zm10.1 5.597c.298.319.729.832.97 1.144l4.451-2.806a29.553 29.553 0 0 0-.841-1.037l-2.819 1.851-.192.164.143-.208 1.244-2.466-.88-.874-2.485 1.236-.209.142.167-.191 1.864-2.798a27.05 27.05 0 0 0-1.045-.84l-2.825 4.417c.358.273.83.675 1.13.948l2.66-1.37.171-.125-.125.17-1.38 2.643Z" fill="#6F6F6F"></path></svg> 