<?xml version="1.0" encoding="UTF-8"?> <svg xmlns="http://www.w3.org/2000/svg" fill="none" viewBox="0 0 48 48"><g clip-path="url(#cadillac__a)"><path fill-rule="evenodd" clip-rule="evenodd" d="M43.801 19.542 46.891 15H1l3.09 4.542c.338 1.929 1.224 6.9 1.324 7.381l.013.061c.283 1.355.456 2.185 3.039 2.825 3.49.862 11.468 2.538 15.477 3.191 4.01-.654 11.992-2.33 15.482-3.191 2.583-.64 2.756-1.47 3.039-2.825l.013-.06c.1-.485.986-5.453 1.324-7.382Zm-37.472-.5h4.023l-.761-1.378h13.65v1.373h.457v-1.85H5.082l1.247 1.856Zm.386 1.817h16.977V19.48H6.495l.22 1.378Zm4.312 2.309h-3.94l-.304-1.88h16.914v1.88h-.457v-1.44H10.884l.143 1.44Zm12.668 2.314h-6.361l.002-.987h6.359v.987Zm.503-8.295h6.417l.003 2.77h-6.42v-2.77ZM8.003 27.866c.105.165.298.357.94.538.277.07.581.141.983.235l.151.035h6.812v-.978H7.915c.024.06.053.116.087.17h.001Zm8.886-1.494H7.614l-.456-2.761h9.73v2.761Zm.445 3.874c2.375.487 4.697.936 6.365 1.208V26.82h-6.365v3.426Zm23.472-7.078h-9.751v-2.77h10.197l-.446 2.77Zm-9.751-5.1v.983l10.488-.004.658-.979H31.055Zm13.4-2.214H3.439l2.437 3.622c.21 1.3.392 2.438.547 3.407v.001a227.919 227.919 0 0 0 .631 3.824v.002c.242 1.327.35 1.922 1.74 2.312 2.897.713 11.295 2.511 15.154 3.118 3.86-.607 12.258-2.402 15.157-3.118 1.39-.39 1.498-.984 1.74-2.312l.024-.132.012-.068c.102-.565.306-1.835.612-3.741.152-.944.328-2.045.53-3.293l2.432-3.622Zm-19.8 9.628h-.457V23.61h16.54l-.305 1.875H36.6c.059-.329.172-1.263.188-1.399H24.655v1.395Zm-.457 1.806H40.11l.257-1.372H24.198v1.372Zm0-6h6.42v.99h-6.42v-.99Zm0 6.408h15.784a.859.859 0 0 1-.085.17c-.105.165-.296.367-.941.535-2.858.74-10.713 2.362-14.758 3.051v-3.756Zm1.56 2.997-1.103.204v-2.726h11.244c-.516.632-1.553.838-7.311 1.983l-.793.158c-.404.08-1.272.24-2.037.381Z" fill="#000"></path></g><defs><clipPath id="cadillac__a"><path fill="#fff" transform="translate(1 15)" d="M0 0h46v18H0z"></path></clipPath></defs></svg> 