<?xml version="1.0" encoding="UTF-8"?> <svg xmlns="http://www.w3.org/2000/svg" fill="none" viewBox="0 0 48 48"><mask id="ferrari__a" style="mask-type:luminance" maskUnits="userSpaceOnUse" x="9" y="0" width="30" height="48"><path d="M9 0h30v48H9V0Z" fill="#fff"></path></mask><g mask="url(#ferrari__a)"><path d="M9.65 6.67h28.7v39.7c0 .34-.05.54-.27.77-.24.24-.45.26-.84.26H10.5a.8.8 0 0 1-.54-.22.85.85 0 0 1-.31-.66V6.67Z" fill="#FFF200"></path><path d="M38.36 4.67H9.65v2.04h28.7V4.67h.01Z" fill="#ED1C24"></path><path d="M38.36 2.63H9.65v2.04h28.7V2.63h.01Z" fill="#fff"></path><path d="M10.46.55h27.07c.43 0 .83.42.83.83v1.3H9.65V1.44a.9.9 0 0 1 .8-.89h.01Z" fill="#009A4E"></path><path d="M37.42 0c.83 0 1.5.67 1.5 1.49v44.98a1.5 1.5 0 0 1-1.5 1.48H10.56a1.5 1.5 0 0 1-1.5-1.48V1.49c0-.82.67-1.49 1.5-1.49h26.86Zm0 .6H10.56c-.5 0-.9.4-.9.89v44.98c0 .5.4.89.9.89h26.86c.5 0 .9-.4.9-.9V1.5c0-.5-.4-.9-.9-.9Z" fill="#000"></path><path d="M23.46 9.2s-.01.16-.05.27c-.04.09-.14.15-.14.22.01.06.08.13.18.18.1.06.14.1.24.12.1.03.22.1.25.02.04-.08-.02-.18-.07-.28-.1-.16-.16-.2-.3-.43-.04-.05-.06-.1-.1-.1h-.01Z" fill="#000"></path><path d="M22.71 27.03c.01-.03.25.12.37.2.375.233.73.498 1.06.79.23.18.35.35.4.31.1-.1-.14-.4-.34-.58-.2-.16-.4-.3-.56-.4-.2-.13-.22-.16-.52-.37-.33-.21-.61-.49-.61-.49l-.32-.25-.5-.42-.55-.5-.42-.47-.37-.48c-.06-.07-.2-.32-.34-.53a6.975 6.975 0 0 0-.35-.5c-.11-.14-.38-.08-.7-.27-.38-.22-.47-.43-.47-.43l-.03-.05a.3.3 0 0 0-.04-.03l-.2-.14-.12-.08s-.08-.07-.19-.12c-.11-.04-.35-.19-.35-.19l-.44-.27-.23-.19-.16-.1-.09-.04h-.11s-.08-.03-.17.07c-.09.1-.06.05.07.61.06.23.05 1.01.11 1.25.08.31.3.7.32.75.02.05.03.22.03.22v.23c.07.4.67.14.8.7.13.55-.08 1.1-.08 1.1s-.13.27-.3.31c-.19.04-.46-.36-.67-.68-.2-.32-.36-.73-.41-.87-.05-.13-.08-.16-.14-.25-.1-.15-.16-.12-.26-.35-.1-.22-.01-.31-.06-.5-.02-.12-.05-.13-.08-.29a9.624 9.624 0 0 1-.08-.64l-.06-.46s-.02-.21-.05-.34c-.1-.46-.14-.9-.14-.9l-.02-.19v-.19s-.01-.09.01-.18c.02-.1.07-.17.07-.17s.1-.16.1-.2l.21-.25s.1-.09.26-.19c.17-.1.31-.09.31-.09l.33.03c.29.04.88.2 1.03.24.14.04.32.1.43.16.33.18.43.1.17-.1l-.37-.33-.3-.28c-.09-.1-.34-.48-.34-.48l-.16-.24-.1-.1-.06-.04-.21-.02c-.11-.02-.16.13-.16.13s-.24.45-.48.72c-.39.43-.67.73-.8.97-.2.32-.17.67-.27.84-.06.1-.1.1-.12.2-.1.25.26.39.18.67-.14.44-1.18.89-1.32.81-.15-.07-.03-.68.02-.87.05-.2.2-.49.21-.5a.399.399 0 0 0 .06-.14l.02-.27c0-.07.04-.18.04-.18s0-.03.1-.23c.09-.2.43-.67.67-1.12.16-.3.23-.47.4-.76.14-.27.4-.68.4-.68l.15-.3.26-.37c.1-.15.13-.26.26-.38.1-.1.18-.16.33-.2.2-.08.35-.04.57.02.23.06.38.17.53.29.15.12.26.26.26.26l.07.1.04.03.14.09.31.2.79.54c.04.03.17.14.2.15.02 0 .22-.21.61-.48.45-.31.6-.29.76-.37.14-.08.2-.15.32-.26.17-.18.18-.27.37-.51.2-.25.39-.38.39-.38l.38-.43c.36-.4.51-.7.51-.7l.2-.4s.28-.6.37-.84c.1-.24.1-.32.1-.32s0-.06-.06-.19c-.08-.12-.15-.06-.28-.04-.26.06-.42 0-.68-.05-.24-.04-.36-.12-.6-.15-.24-.05-.39-.09-.63-.06a.924.924 0 0 0-.15.03c-.13.04-.17.06-.27.11a.71.71 0 0 1-.33.08c-.1 0-.15 0-.23-.03a.38.38 0 0 1-.2-.15c0-.03-.01-.02.01-.07a.14.14 0 0 1 .06-.05l.11-.02.17-.05.23-.07.14-.06s.04-.06.03-.1c-.02-.04-.11-.05-.11-.05l-.14.05-.21.07-.28.06a2 2 0 0 1-.3.04l-.05-.01s-.06-.04-.07-.08l-.02-.1c-.03-.16-.06-.26-.02-.4.01-.07.03-.1.05-.17a.927.927 0 0 1 .07-.12l.1-.16.18-.27c.06-.06.1-.1.18-.14a.72.72 0 0 1 .33-.1c.14 0 .16 0 .36-.05.2-.05.35-.13.35-.13s.48-.18.77-.32c.31-.15.44-.31.76-.44l.35-.11a.07.07 0 0 0 .04-.04c.01-.05-.07-.08-.12-.07-.05 0-.16.05-.18 0-.02-.04.1-.07.1-.07s.05-.02.05-.06c0-.04-.08-.01-.11-.02-.2-.02-.2-.05-.34-.08-.15-.04-.23-.09-.39-.1-.14 0-.27.03-.36.05-.08.02-.09-.06-.05-.08.24-.11.25-.12.42-.13l.24.02c.02 0 .2 0 .25-.05.05-.05-.15-.05-.25-.08-.09-.04-.22-.05-.22-.1 0-.07.07-.03.12-.05.06-.01.1 0 .15-.02l.28-.04c.16-.01.39.06.39.06l.36.16c.12.05.26.08.26.08s.17.03.3-.05c.12-.08.05-.13 0-.2-.04-.08-.1-.18-.01-.36.07-.17.1-.36.13-.38.03-.02.13.13.2.2.23.21.54.32.83.78.03.04.13-.02.47.03.35.05.64.42.72.5.08.1.18.09.18.09l.16.02.6.01s.26-.05.42.01c.1.04.47.29.3.38-.1.06-.22-.08-.32-.09-.13 0-.18.02-.29.05-.23.05-.73.2-.55.26l.04.01.1.02.34.1c.2.08.3.17.48.27.1.06.15.12.26.16.1.03.17 0 .28.02.14.02.22.05.35.11.19.1.26.2.43.33.09.06.16.07.22.15l.04.05c.02.08-.13.04-.2.02-.1-.01-.13-.05-.21-.1-.12-.05-.18-.1-.3-.13-.1-.02-.16 0-.25 0l-.24.02c-.16 0-.25-.01-.4-.05-.18-.03-.27-.1-.45-.14-.2-.04-.54-.2-.5-.04 0 .08.2.15.2.15l.24.12c.12.06.19.14.19.14l.08.06.2.25c.11.13.3.13.3.13s.13 0 .38.05.52.2.52.2.2.14.3.28c.12.14.06.2.04.22l-.02.01c-.02.01-.16-.17-.16-.17l-.1-.08s-.1-.07-.23-.12c-.13-.04-.17-.01-.17-.01s-.27.08-.51.07c-.24 0-.36-.1-.36-.1l-.15-.1s-.23-.21-.24-.11c0 .06.1.14.1.14l.12.12.24.23c.1.1.17.1.17.1.043.008.086.014.13.02l.2.08c.16.07.34.21.34.21l.04.02.09.03.15.02c.1.01.06.07.06.07l-.02.02-.08.06s-.1.03-.17.03-.17-.04-.17-.04l-.2-.07-.27-.07c-.14-.03-.28-.063-.42-.1l-.18-.09c-.12-.05-.16-.12-.3-.16-.15-.05-.24-.06-.34.02-.19.12.28.15.5.26.35.17.54.3.62.47a.7.7 0 0 0 .16.25s.24.12.35.25c.06.07.07.12.13.2.13.15.38.14.43.27.05.12-.2.07-.34.05-.23-.02-.3-.24-.51-.33-.13-.05-.21-.05-.34-.1-.23-.07-.34-.17-.58-.24-.14-.05-.4-.23-.37-.09 0 .04.03.06.04.08.057.081.12.158.19.23.03.03.18.15.4.26.21.12.4.35.4.35l.1.16c.03.07 0 .09.06.2.04.1.07.11.13.17.16.15.33.12.53.2.05.03.06.04.11.1.06.06 0 .1 0 .1s-.23.05-.38.04c-.18-.02-.27-.08-.45-.17-.19-.09-.28-.25-.3-.26l-.1-.08c-.03-.03-.12-.05-.2-.07l-.21-.05-.28-.1c-.05-.01-.17-.04-.26.02-.17.1.27.17.4.32.08.07.11.12.18.2.05.06.07.1.13.15l.12.07.27.13c.16.1.34.34.34.34l.11.17.07.1.01.04.03.05s.08.1.14.14c.06.04.05.07.05.07l-.05.04c-.04.03-.07 0-.12 0-.06-.03-.1-.08-.15-.12-.06-.05-.11-.15-.2-.21a.98.98 0 0 0-.25-.08l-.18-.1-.15-.07s-.21-.11-.33-.15c-.11-.03-.04.04-.04.04s.1.16.2.23c.13.08.31.16.25.23-.04.04-.09.03-.15.02-.1-.01-.21-.13-.21-.13s-.05-.03-.27-.1c-.21-.07-.13.05-.08.11.05.07.11.1.11.1l.15.07.07.02.25.05c.2.05.3.14.3.14s.1.1.25.2c.15.12.3.14.37.16.08 0 .08.06.08.06s.01.05 0 .07c0 .02-.01.03-.03.03l-.05.02-.1.02s-.22 0-.39-.04c-.17-.05-.32-.16-.34-.17 0 0-.17-.1-.28-.13a.73.73 0 0 0-.3-.01l-.17.04c-.1.03.03.07.03.07h.07l.17.02s.18.02.33.07c.15.06.25.17.35.27.1.1.22.17.22.17l.08.05.04.03v.06c0 .02-.03.03-.03.03h-.06l-.21-.1c-.1-.04-.14-.08-.23-.1a.678.678 0 0 0-.21-.02c-.25.043-.506.056-.76.04-.23-.03-.53-.21-.57-.16-.08.1.16.13.28.2.16.1.44.18.44.18s.2.04.32.1c.27.12.35.3.56.49.11.1.2.15.36.17.14.02.13 0 .34-.03.22-.05.35-.25.4-.17.02.01.02.02.01.04l-.02.06-.06.08c-.04.04-.19.12-.26.15-.16.056-.33.08-.5.07-.24 0-.57-.18-.57-.18l-.24-.1-.19-.09c-.2-.07-.32-.06-.52-.12l-.33-.1c-.11-.02-.05.03-.04.05.06.07.13.1.22.13.12.06.2.05.33.1.14.06.26.14.34.19.07.05.13.1.2.18l.25.22.07.06c0 .03.03.08.02.16-.01.09-.08.03-.08.03l-.07-.05-.07-.06-.1-.09s-.1-.08-.25-.16c-.16-.08-.34-.1-.34-.1s-.17-.03-.16.03c0 .05.04.05.17.09.14.03.22.1.22.1s.14.1.24.21c.1.11.12.22.12.22s.05.1.18.21c.12.13.19.08.18.14 0 .06-.06.07-.06.07h-.05l-.08-.03-.17-.1-.22-.2a1.4 1.4 0 0 1-.22-.15l-.2-.12-.26-.1c-.06-.03-.18-.03-.18-.03s-.14-.02-.22-.05c-.13-.06-.29-.2-.3-.2a.813.813 0 0 0-.17-.05c-.03 0-.08.24-.1.37-.05.57.1.94.33 1.46.34.75 1.28 1.69 1.28 1.69s.23.13.33.21c.28.22.75.53 1.16.94.35.36.82.98.82.98s.27.38.4.65c.124.3.22.612.29.93.01.02.03.04.05.04h.16c.02 0 .2 0 .33-.04.12-.03.41-.16.6-.26.2-.1.42-.3.42-.3l.27-.29c.23-.25.37-.62.43-.76.05-.14.1-.41.13-.88.03-.46-.03-.95-.03-.95s-.09-.68-.14-.91c-.05-.23-.17-.61-.17-.61s-.09-.34-.11-.55c-.03-.21-.04-.56-.04-.56s0-.21.07-.6c.07-.4.31-.79.31-.79s.07-.13.33-.44c.26-.32.35-.37.6-.55.21-.15.48-.4.57-.34.1.07-.1.19-.16.25-.16.16-.47.44-.71.87-.22.37-.3.62-.35.86-.05.24-.03.51-.03.6.01.1.06.06.06.06s.52-.42.8-.74c.31-.34.59-.95.7-.96.07 0 .1.16.08.24-.06.31-.09.35-.19.56-.12.25-.23.35-.4.58-.16.23-.25.32-.39.63-.2.44-.08.79-.08.79s.03.2.12.2c.16 0 .5-.44.73-.8.16-.26.22-.56.33-.72.1-.14.19.23.15.45-.05.26-.18.49-.46.86-.28.35-.27.7-.27.7s-.03.15-.05.49c-.02.33.08.84.08.84s.08.43.1.76c.02.32 0 1.06-.3 1.64-.112.193-.24.377-.38.55 0 0-.2.2-.36.33-.17.11-.56.3-.56.3l-.3.1c-.05.01-.07.05-.07.05.037.095.076.188.12.28 0 0 .08.27.11.48.03.2 0 .26-.03.42-.03.15-.1.08-.12.38-.01.27.1.4.09.7-.01.14-.16-.16-.24-.28-.15-.28-.11-.7-.11-.8a1.38 1.38 0 0 0-.25-.77c-.08-.1-.17-.16-.2-.15-.02.01-.03.07-.03.1l.07.14.12.2s.04.15.06.43c.01.27-.07.61-.07.61s-.11.38-.23.61c-.12.25-.41.59-.41.59s-.2.19-.36.5c-.15.3-.02.44-.08.48-.06.04-.18-.18-.2-.33-.04-.13-.03-.2.03-.35.05-.15.18-.36.18-.36l.18-.32s.22-.42.3-.73c.06-.3-.02-.65-.02-.65s0-.1-.08-.1-.13.07-.17.15c-.06.17.03.14-.07.42-.07.22-.1.2-.13.32-.05.16-.08.32-.07.42 0 .1-.05.06-.05.06s-.1-.18-.1-.4c.016-.263.056-.524.12-.78 0 0 .08-.29.07-.55-.02-.26-.12-.3-.12-.3s-.02-.04-.12-.04c-.1.01-.1.2-.1.2s-.03.25-.07.41a2.8 2.8 0 0 1-.52 1.06c-.24.33-.56.63-.73.77-.16.14-.65.5-.65.5l-.59.4s-.23.22-.33.49c-.1.26-.1.47-.04.72.06.25.15.36.2.43.04.07.13.19.16.33.02.09 0 .14.01.23l.02.2c0 .12.02.2-.06.3-.05.09-.19.15-.19.15l-.25.13c-.99.6-1.34.99-1.9 1.65-.18.22-.05.2-.23.45-.12.15-.38.15-.48.33-.13.25.3.5-.2.7-.65.29-1.76.09-1.78 0-.06-.24.22-.52.32-.63.45-.49.85-.5 1-.91.03-.09.02-.16.38-.43.606-.44 1.175-.927 1.7-1.46.16-.17.29-.29.35-.47.07-.2-.06-.31-.06-.31l-.19-.3-.34-.62-.23-.52c-.08-.2-.23-.7-.23-.7s-.11-.47-.13-.77c-.04-.54.04-.85.18-1.38.18-.68.6-.96.77-1.63.05-.2.06-.54-.04-.52-.1.02-.1.28-.18.46-.26.67-.62.96-.81 1.65-.13.47-.19.75-.19 1.24 0 .27 0 .22.07.7.02.18.07.28.12.45l.14.36s.14.3.18.51c.02.08.04.12.03.2 0 .12.02.15-.05.26-.07.15-.03.23-.27.28-.22.05-.66-.1-.66-.1s-1.83-.55-3-.39c-.22.03-.35.12-.58.11-.21 0-.32-.16-.53-.1-.04.01-.06.04-.1.07-.3.21-.07.57-.88.38-.5-.11-1.1-.42-1-.6.14-.26.33-.3.72-.47.43-.17 1.06-.12 1.18-.13.16-.01.38-.12.65-.12.47-.01.55.04.55.04l.8.07 1.53.02.38-.04c.11-.02.2-.24.26-.34.06-.1 0-.25 0-.25l-.05-.07-.14-.24-.27-.45-.3-.6s-.2-.41-.3-.68c-.1-.28-.16-.43-.23-.7a3.722 3.722 0 0 1-.13-.76c0-.34-.03-.6.06-.87Zm3.79 15.53v-.32c0-.74.38-.89 1.47-.9 1 .01 1.36.14 1.36.78v2.46h.38v.56h-2.46c-.52 0-.86-.36-.86-.8v-.5c0-.42.22-.8 1-.8h.95v-.75c0-.4-.02-.44-.42-.44-.47 0-.5.06-.5.44v.27h-.92Zm1.14.89c-.19 0-.3.16-.3.35v.48c0 .19.08.34.3.34H28c.2 0 .35-.06.35-.34v-.83h-.71Zm-3.47-1.17v-.87H22.8v.52h.36v2.65h-.36v.56h1.71v-.56h-.34v-1.42c0-.13.8-1.15.8-1.04v1.42h.95v-1.6c0-.36-.23-.6-.67-.6-.51 0-.86.66-1.08.94Zm10.93 2.3v-3.17h-1.4v.52h.39v2.65h-.4v.56h1.77v-.56h-.36Zm-14.46-2.3v-.87h-1.37v.52h.36v2.65h-.36v.56h1.71v-.56h-.34v-1.42c0-.13.8-1.15.8-1.04v1.42h.96v-1.6c0-.36-.24-.6-.67-.6-.52 0-.87.66-1.1.94h.01Z" fill="#000"></path><path fill-rule="evenodd" clip-rule="evenodd" d="M18.74 43.92h-.96v.28c0 .38-.06.4-.53.4-.55 0-.51-.05-.5-.4v-.66h2V42.1c0-.52-.4-.74-1.44-.74h-.15c-1.12 0-1.41.26-1.41.9v2.1c0 .71.41.83 1.43.86h.12c1.1-.02 1.44-.1 1.44-.76v-.54Zm-1.99-1.77c0-.2.06-.29.29-.3h.42c.17 0 .27.09.27.22v1.08h-.98v-1Z" fill="#000"></path><path d="M31.45 42.28v-.87h-1.37v.52h.36v2.65h-.36v.56h1.71v-.56h-.34v-1.42c0-.13.8-1.15.8-1.04v1.42h.96v-1.6c0-.36-.24-.6-.68-.6-.5 0-.86.66-1.08.94Z" fill="#000"></path><path d="M14.55 43.33v-.5H14v1.75h.93v.56h-2.72v-.56h.73v-3.93h-.57v-.68h21.15v.68H14.01v1.58h.54v-.47h.61v1.57h-.61Zm20.53-3.38h-1v.66h1v-.66Z" fill="#000"></path><path d="M32.65 26.48c.32-.42.35-.8.37-1.34.01-.4-.14-1-.14-1l-.02-.04s-.05-.08-.09.02c0 .08.02.15.02.15l.02.78s-.03.4-.16.8c-.23.69-.82 1-.91 1.24-.15.4.52-.11.9-.61h.01Zm-3.38 1.26s-.13.04-.13.17.03.24.02.4c0 .2-.18.43-.06.5.2.13.37-.77.31-.9-.06-.14-.12-.17-.14-.17ZM27 34.03s-.04-.02-.11.01c-.08.03-.07.1-.07.1s-.02.09.04.1c.06 0 .16-.14.16-.16l-.02-.05Zm-2.14 1.53s-.02.02 0 .03c.02.02.05 0 .05 0l.58-.5c.23-.21.57-.59.57-.59s.02-.02 0-.05c-.03-.02-.1.01-.15.04l-.1.08-.15.14-.28.28-.18.17-.18.16-.07.08-.02.05-.03.03-.02.03-.01.02-.01.03Zm-.64.41s-.04-.03-.1 0a.5.5 0 0 0-.14.13c0 .01-.04.06-.01.1.02.04.1-.02.11-.02l.12-.09s.06-.03.02-.12ZM23 37.21s-.05-.1-.12-.05c-.07.04-.1.05-.17.14l-.1.12c0 .02-.07.15.07.16.23.01.08-.14.16-.2.07-.04.19-.03.19-.08s-.03-.09-.03-.09Zm-4.19-4.94s-.14.03-.15.08c-.01.05.08.1.1.1.02 0 .05.04.14-.02.1-.07.1-.12.1-.12s.05-.06-.19-.04Zm2.31-.07s0-.06-.1-.05c-.1 0-.13.02-.13.04 0 .01 0 .04.1.04.09 0 .12 0 .13-.04v.01Zm2.18.05-.25.01h-.51c-.29-.03-.72-.1-.72-.1s-.06-.01-.08.03c-.02.03.05.1.12.13.36.11.38.1.62.1.14 0 .21-.02.35-.03.17 0 .25.02.44-.03.05-.01.1-.1.02-.1l.01-.01Zm1.22-.36s-.04-.04-.11 0c-.08.03-.12.11-.12.11s-.04.06.04.05a.488.488 0 0 0 .15-.05c.02-.01.08-.06.04-.11Zm-1.07-14.73s.52-.48.9-1.13c.21-.38.3-1.27.12-1.05-.09.1-.19.57-.35.9-.24.5-.74 1.19-.74 1.19s-.1.22.07.1v-.01Zm-2.07 1.24s-.05.04-.03.1c.03.08.13.02.13.02s.24-.09.5-.1c.268.004.533.044.79.12l.13.06c.01.01.1.05.15 0 .05-.04-.3-.35-.66-.4-.6-.08-.99.17-.99.17l-.02.02v.01Zm-2.45 2.1c.04.03.24-.35.4-.59l.35-.47s.1-.13-.07-.06c-.07.03-.26.18-.4.44-.1.23-.33.64-.28.68Zm-1.38-1.65s-.05.14.13.33c.17.18.21.33.32.22.03-.03-.1-.28-.17-.34a2.656 2.656 0 0 1-.13-.13l-.04-.04-.06-.03-.03-.01h-.02Zm-.56-1.41s-.19.03-.23.12c-.05.1.21.04.21.04s.18 0 .18-.06c0-.07-.02-.07-.16-.1Zm-2.96 4.91c-.1-.03-.11.16-.13.22 0 .06.05.18.07.18.02 0 .1-.12.1-.18s.04-.2-.04-.22ZM17.1 26s-.17-.13-.2-.07c-.02.05.15.29.15.29s.05.08.13.04c.07-.04.05-.12.05-.12s-.06-.11-.13-.13V26Zm-1.28-3.95s-.04-.01-.06.04c-.02.05-.01.14-.03.24l.02.3s.02.17.06.27c.03.11.13.27.13.27s.04.08.08.08c.05 0 .04-.06.04-.06s-.15-.57-.15-.62c-.02-.2-.02-.42-.02-.42v-.04s0-.06-.07-.06Zm.22-1.73s-.08-.01-.15.14c-.07.15-.06.21-.05.22 0 0 .06 0 .16-.14.09-.14.07-.19.07-.19s0-.03-.03-.03Zm2.16 1.57s.1.14-.09.1c-.18-.03-.56-.33-.72-.4-.15-.09-.4-.11-.3-.21.02-.02.03-.03.06-.03l.14.04c.182.086.365.17.55.25.11.06.29.19.29.19l.07.06Zm5.03 4.33c.05.16-.57-.32-.9-.58-.89-.68-1.97-2.08-1.83-2.2.1-.1.55.54 1.2 1.24.7.75 1.5 1.45 1.53 1.54Zm2.6-.66c-.2.2-.26.47-.15.66.1.2.14-.28.26-.42.1-.12.17-.1.34-.22.3-.2-.2-.29-.45-.02Zm-1.1-4.41c-.14-.02-.13.18-.11.33.08.64.37 1.13.75 1.6.24.28.88.78.95.7.03-.03-.6-.52-1.01-1.15a2.73 2.73 0 0 1-.48-1.2c0-.05 0-.26-.1-.28Zm-2.48-9.49c-.3.16-.8.3-.8.3s-.01.04.05.04c.43-.04.6-.09.82-.19.23-.1.4-.37.4-.37s.09-.17-.08-.03c-.06.04-.23.16-.4.25h.01Zm3.48-1.1s-.1-.02-.17.02c-.06.04-.04.07-.04.07s.1.08.17.1c.07 0 .23.07.22.02 0-.05-.09-.15-.12-.17l-.06-.04Zm-1.64 3.01c.02.03.3-.05.42-.11.09-.05.12-.22.12-.22s.03-.16 0-.1c-.18.28-.56.4-.54.43Zm-.01-.75c.12-.23-.32.23-.55.35l-.36.17s-.06.07.02.07.3.06.47-.07c.04-.03.21-.29.21-.29s.15-.13.21-.23Zm-.07.96c.01.04.5.03.63-.01.1-.03.15-.2.15-.2s.06-.15.01-.1c-.22.23-.8.27-.79.31Zm-7.96 4.55s-.08-.03-.17.1c-.1.15-.5.78-.43.88.08.1.44-.57.56-.7.1-.13.06-.25.06-.25s0-.03-.02-.03Zm9.09 11.43c-.05.21 0 .65.08.73.18.21.07-.33.1-.53.01-.18.04-.24.12-.43.16-.34-.2-.22-.3.23Zm-1.52-18.33s-.14 0-.25.07c-.1.05-.13.14-.13.14s-.03.06-.01.1c.03.06.18-.05.28-.01.09.03.13.06.2.13.05.07.15.17.2.11.07-.05.05-.19.05-.19s-.07-.22-.17-.29c-.1-.06-.17-.06-.17-.06ZM21.33 13s-.08.02-.06.12c.02.09.07.07.07.07s.16-.07.15-.16c-.01-.1-.16-.02-.16-.02V13Zm-1.11-.5s-.09.01-.15.12c-.06.1-.09.2-.09.2s-.03.14.02.19c.05.04.1-.1.17-.14l.12-.08c.06-.04.15.01.15-.1-.01-.13-.14-.19-.22-.18v-.01Zm3.6-1.3s-.19-.02-.18.05c0 .07.1.03.16.06s.1.04.15.08c.04.03.03.1.08.1.06 0 .04-.03.04-.03s-.05-.16-.12-.2c-.07-.05-.13-.05-.13-.05v-.01Zm2.12.78a.993.993 0 0 1-.05.13s-.05.21.16.14c.22-.08.1-.05.26-.12.15-.08.15-.04.26-.03h.11c.05-.02.03-.08-.07-.1-.12-.03-.26-.03-.42-.03-.1 0-.22-.1-.25 0v.01Zm.09-.78s-.1-.02-.16.02c-.07.04-.05.07-.05.07s.1.08.18.1c.07 0 .23.07.22.02 0-.05-.1-.15-.12-.18l-.07-.03Zm.37 1.46s-.1-.02-.17.02-.05.07-.05.07.11.07.19.08c.08.01.24.08.23.03 0-.05-.1-.15-.13-.17-.03-.03-.06-.03-.06-.03h-.01Zm.04.53s-.11-.03-.19.02c-.07.04-.05.08-.05.08s.11.08.2.1c.08.01.26.08.25.02 0-.05-.1-.16-.14-.19-.04-.03-.07-.03-.07-.03Zm.05.51s-.12-.03-.2.03c-.09.05-.06.09-.06.09s.12.1.21.1c.1.02.28.1.28.04-.01-.06-.12-.18-.16-.22a.18.18 0 0 0-.07-.04Zm-.01.64s-.12-.03-.2.02c-.09.05-.06.1-.06.1s.12.1.21.1c.09.02.28.1.27.04 0-.07-.11-.19-.15-.22a.169.169 0 0 0-.07-.04Zm-.09 1.24s-.12-.02-.2.03c-.08.05-.06.09-.06.09s.12.1.21.11c.1.01.29.1.28.03-.01-.06-.12-.18-.16-.21a.2.2 0 0 0-.07-.05Zm.08-.62s-.14-.03-.23.03c-.1.06-.07.1-.07.1s.15.12.25.13c.1.02.32.11.32.04a.799.799 0 0 0-.18-.25.23.23 0 0 0-.09-.05Zm-.14 1.19s-.1-.03-.17.01c-.06.05-.04.08-.04.08s.1.08.17.1c.08 0 .23.07.23.02-.01-.06-.1-.15-.13-.18s-.06-.03-.06-.03Zm-.09.53s-.08-.01-.14.02c-.05.03-.04.06-.04.06s.09.07.15.08c.06 0 .19.07.18.02 0-.04-.08-.13-.1-.15l-.05-.03Zm-.12.5s-.07-.02-.12.01c-.05.03-.04.06-.04.06s.08.06.13.06c.06.01.18.06.17.02 0-.04-.07-.11-.1-.13-.01-.02-.04-.02-.04-.02Zm-.12.4s-.07-.02-.12.01c-.05.03-.03.06-.03.06s.07.06.13.07c.05 0 .17.06.16.02 0-.04-.06-.12-.09-.14l-.04-.02H26Zm-.14.47s-.05-.02-.1 0c-.04.03-.02.05-.02.05s.06.05.1.06c.05 0 .14.05.14.01 0-.03-.06-.09-.08-.1a.1.1 0 0 0-.04-.02Zm-.16.43s-.05-.01-.09.01c-.03.02-.02.04-.02.04s.05.04.09.05c.04 0 .12.04.11.01 0-.03-.04-.08-.06-.09l-.03-.02Zm-.18.42h-.08c-.04.03-.03.05-.03.05l.1.05c.03 0 .12.04.11 0 0-.02-.05-.07-.06-.08l-.04-.02ZM14.3 21.01s-.1.17-.05.26c.04.1.16-.15.16-.15s.12-.23.07-.28c-.05-.04-.08.08-.19.17h.01Z" fill="#fff"></path><path d="M34.59 40.65v-.67" stroke="#000" stroke-width=".06" stroke-miterlimit="10"></path></g></svg> 