<?xml version="1.0" encoding="UTF-8"?> <svg xmlns="http://www.w3.org/2000/svg" fill="none" viewBox="0 0 48 48"><g clip-path="url(#gmc__a)"><g clip-path="url(#gmc__b)"><path d="M13.479 19.233c.097 0 .29-.048.315.316v1.163c0 .146-.121.243-.267.243h-9.77a.726.726 0 0 0-.75.727l.023 3.733c.025.364.243.727.776.727h6.86c.389 0 .752-.218.752-.775v-.849c0-.073 0-.17-.194-.17H8.145c-.218 0-.29-.072-.29-.315v-1.09c0-.17.048-.243.315-.243h5.382c.12 0 .242 0 .242.315v2.788c0 .558-.436 1.89-1.94 1.94-1.502.048-9.115.024-9.284.024-.291 0-1.794-.316-1.94-1.891v-4.679c0-.388.388-1.94 1.94-1.964 1.527-.048 10.666 0 10.909 0Zm21.188 2.037c0-.921.775-2.012 2.012-2.037H47.03c.194 0 .34.073.34.34v1.042c-.024.243-.049.315-.364.315h-9.188c-.582 0-.848.437-.824.776 0 .315 0 3.394.048 3.636a.727.727 0 0 0 .728.68h9.26c.194 0 .267.096.267.339v1.066c0 .194-.048.243-.34.267-.29 0-9.236.073-10.35.048-1.116-.024-1.94-.92-1.94-2.06V21.27ZM16.97 19.5c0-.242.218-.242.29-.242h3.467c.146 0 .17.097.315.29l3.006 5.334c.073.145.219.266.364.048.121-.242 3.03-5.381 3.127-5.503.073-.145.17-.145.316-.145h3.466c.146 0 .243.097.243.315v8c0 .097-.049.242-.243.242h-1.94c-.12 0-.242 0-.242-.363v-6.279s-.024-.242-.145 0c-.145.242-2.279 4.218-3.758 6.57-.024.048-.048.072-.17.072h-1.648c-.072 0-.121 0-.218-.12-.073-.146-3.612-6.45-3.71-6.57-.096-.146-.193-.098-.193.048v6.376c0 .12 0 .242-.242.266h-2.013c-.097-.048-.12-.12-.12-.242l.048-8.097Z" fill="#E4192C"></path><path fill-rule="evenodd" clip-rule="evenodd" d="M14.279 19.532v1.18c0 .472-.401.727-.752.727H3.741a.244.244 0 0 0-.25.241l.024 3.715c.009.096.04.16.07.194.023.024.074.069.221.069h6.86c.11 0 .171-.031.2-.056.017-.016.067-.069.067-.235v-.534H8.145c-.135 0-.39-.016-.58-.22-.182-.193-.195-.442-.195-.58v-1.09c0-.1.005-.362.225-.552.19-.165.435-.176.575-.176h5.387a.707.707 0 0 1 .479.158c.214.186.243.456.243.642v2.788c0 .375-.138.949-.499 1.445-.376.518-.994.95-1.91.979-1.39.045-7.944.028-9.121.025h-.18c-.238 0-.777-.106-1.285-.432-.533-.341-1.048-.937-1.137-1.9l-.002-.022v-4.701c0-.29.126-.868.469-1.386.36-.543.979-1.046 1.944-1.062 1.363-.043 8.614-.01 10.485-.002.254 0 .408.002.436.002l.02-.001a.709.709 0 0 1 .39.078c.281.147.372.435.389.69v.016Zm-11.71-.299C1.02 19.258.63 20.81.63 21.197v4.679c.146 1.575 1.649 1.89 1.94 1.89l.19.001c1.208.003 7.717.02 9.095-.025 1.503-.048 1.939-1.381 1.939-1.939v-2.788c0-.315-.121-.315-.242-.315H8.17c-.267 0-.315.073-.315.242v1.091c0 .243.072.316.29.316h3.08c.193 0 .193.096.193.17v.848c0 .557-.363.775-.751.775h-6.86c-.534 0-.752-.363-.777-.727l-.024-3.733a.728.728 0 0 1 .752-.727h9.77c.145 0 .266-.097.266-.243V19.55c-.022-.328-.182-.321-.284-.317a271.844 271.844 0 0 1-.492-.001c-1.91-.008-9.108-.04-10.448.002Zm44.389 8.461-1.11.008c-2.492.017-8.353.06-9.242.04-1.115-.024-1.94-.92-1.94-2.06V21.27c0-.921.776-2.012 2.013-2.037H47.03c.194 0 .34.073.34.34v1.042c-.025.243-.049.315-.364.315h-9.188c-.582 0-.848.437-.824.776 0 .315 0 3.394.048 3.636a.727.727 0 0 0 .728.68h9.26c.194 0 .267.096.267.339v1.066c0 .194-.048.243-.34.267Zm-12.776-6.91c.21-.997 1.15-2.01 2.487-2.035H47.03c.143 0 .367.023.557.185.205.174.267.42.267.639v1.066l-.002.024a1.506 1.506 0 0 1-.036.225.686.686 0 0 1-.176.318c-.206.207-.491.21-.634.21h-9.188c-.16 0-.239.055-.279.1a.228.228 0 0 0-.062.156l.002.017v.017c0 .157 0 1.005.006 1.842.003.42.007.834.014 1.158a19.502 19.502 0 0 0 .019.541l.006.032.002.031a.242.242 0 0 0 .243.226h9.261c.173 0 .417.046.59.266.145.188.162.413.162.559v1.066c0 .101-.001.38-.24.574a.736.736 0 0 1-.295.14c-.082.02-.169.03-.25.036l-.02.002h-.02l-1.058.007c-2.461.018-8.405.06-9.303.041-1.4-.03-2.414-1.163-2.414-2.545v-4.897Zm-17.7-.8V19.5c0-.435.291-.752.727-.727.022.001.044-.003.066 0h3.452a.683.683 0 0 1 .522.238c.042.048.078.1.1.133l.01.013.071.1.02.026 2.791 4.953a512.012 512.012 0 0 1 2.722-4.792l.111-.187.004-.006.045-.074a.704.704 0 0 1 .385-.334.988.988 0 0 1 .347-.046h3.466a.7.7 0 0 1 .55.252c.14.17.177.376.177.548v8a.71.71 0 0 1-.727.727h-1.945a.685.685 0 0 1-.504-.187c-.193-.194-.218-.464-.218-.661v-4.659c-.182.331-.39.707-.616 1.11-.733 1.313-1.636 2.896-2.381 4.082a.583.583 0 0 1-.252.246.747.747 0 0 1-.338.07h-1.655c-.037 0-.162.001-.294-.06a.817.817 0 0 1-.297-.244l-.032-.04-.023-.046-.003-.006a13.332 13.332 0 0 0-.163-.294l-.42-.75a1313.594 1313.594 0 0 0-2.398-4.26v4.955a.772.772 0 0 1-.104.42c-.145.23-.384.303-.575.322l-.024.002h-2.151l-.102-.05a.68.68 0 0 1-.32-.325.83.83 0 0 1-.07-.352v-.003l.046-7.61Zm.488-.484-.049 8.097c0 .121.024.194.121.242h2.012c.243-.024.243-.145.243-.266v-6.376c0-.145.097-.194.194-.049a15.455 15.455 0 0 1 .29.497 805.036 805.036 0 0 1 3.419 6.073c.097.121.145.121.218.121h1.649c.12 0 .145-.024.17-.072 1.162-1.85 2.73-4.704 3.418-5.956l.023-.044.15-.272.157-.283.009-.015c.121-.242.145 0 .145 0v6.279c0 .363.122.363.243.363h1.94c.193 0 .242-.145.242-.242v-8c0-.218-.097-.315-.243-.315h-3.466c-.146 0-.243 0-.316.145-.097.122-3.006 5.26-3.127 5.503-.145.218-.29.097-.363-.048l-3.007-5.334a3.132 3.132 0 0 1-.082-.116c-.08-.116-.12-.174-.233-.174h-3.466c-.157 0-.291.062-.291.242Z" fill="#000"></path></g></g><defs><clipPath id="gmc__a"><path fill="#fff" d="M0 0h48v48H0z"></path></clipPath><clipPath id="gmc__b"><path fill="#fff" transform="translate(0 18.53)" d="M0 0h48v9.939H0z"></path></clipPath></defs></svg> 