<?xml version="1.0" encoding="UTF-8"?> <svg xmlns="http://www.w3.org/2000/svg" fill="none" viewBox="0 0 48 48"><g clip-path="url(#kia__a)"><path d="M27.85 28.478c0 .092.028.144.081.144a.246.246 0 0 0 .115-.048l14.962-9.71a1.44 1.44 0 0 1 .864-.26h3.288c.504 0 .845.337.845.84v6.28c0 .758-.168 1.2-.84 1.602l-3.989 2.4a.273.273 0 0 1-.134.048c-.048 0-.096-.038-.096-.177v-7.325c0-.086-.024-.144-.082-.144a.225.225 0 0 0-.115.048L31.814 29.28c-.25.168-.542.26-.84.254h-7.248c-.508 0-.844-.336-.844-.844v-9.048c0-.068-.03-.13-.087-.13a.235.235 0 0 0-.115.048l-7.214 4.33c-.072.048-.092.081-.092.115 0 .029.015.057.063.11l5.155 5.15c.067.068.115.12.115.178 0 .048-.077.087-.168.087h-4.656c-.365 0-.648-.053-.845-.25l-3.124-3.12a.134.134 0 0 0-.096-.048.207.207 0 0 0-.096.029L6.499 29.28c-.317.192-.533.245-.845.245H.85c-.514.005-.85-.336-.85-.84v-6.159c0-.763.168-1.2.845-1.603l4.013-2.41a.207.207 0 0 1 .105-.033c.063 0 .096.062.096.202v8.246c0 .086.02.125.082.125a.288.288 0 0 0 .12-.048l13.555-8.155c.26-.178.576-.264.893-.25h7.296c.504 0 .845.336.845.84l-.005 9.038h.005Z" fill="#131E29"></path></g><defs><clipPath id="kia__a"><path fill="#fff" transform="translate(0 18)" d="M0 0h48v12H0z"></path></clipPath></defs></svg> 