<?xml version="1.0" encoding="UTF-8"?> <svg xmlns="http://www.w3.org/2000/svg" fill="none" viewBox="0 0 48 48"><path fill-rule="evenodd" clip-rule="evenodd" d="M24.132 9c2.377 0 4.755.264 6.868.792-2.377 3.43-7.044 9.941-9.157 12.844l-.705.88s-2.905 4.047 2.554 4.047h16.113c.44-1.144.616-2.375.616-3.607 0-5.19-3.698-9.677-8.98-11.877.528-.616.968-1.232 1.232-1.76C39.893 12.696 45 17.887 45 23.957c0 2.2-.704 4.31-1.85 6.246H19.555s-7.573-.088-3.699-6.686c3.17-5.454 7.485-10.997 8.982-12.844h-.881c-9.07 0-16.465 5.982-16.465 13.372s7.396 13.372 16.465 13.372c5.723 0 10.83-2.375 13.736-6.07h4.578C38.66 35.921 31.792 39 23.956 39 12.333 39 3 32.314 3 24.044S12.421 9.088 23.956 9.088L24.132 9Z" fill="#2B2A29"></path></svg> 