<?xml version="1.0" encoding="UTF-8"?> <svg xmlns="http://www.w3.org/2000/svg" fill="none" viewBox="0 0 48 48"><path d="M20.374 36.995h8.252v2.002h-8.252v-2.002Zm1.079 3.002h6.141V44h-6.14v-4.003Zm-8.298-13.009h22.69v1.001h-22.69v-1Zm-1.032 2.002h24.754v1H12.123v-1Zm0-4.003h24.754v1H12.123v-1Zm16.842 7.398c-1.378 1.289-1.37 3.61-1.37 3.61h-6.19s.009-2.321-1.369-3.61c-.958-.902-2.176-1.09-2.176-1.09-.769-.153-.579-.255-.579-.304h14.44s.088.143-.68.304c0 0-1.12.188-2.076 1.09Zm-15.81-1.394h3.094c0 1.233-.855 1.928-2.063 1.996a4.09 4.09 0 0 1-1.031-.082v-1.914Zm0-7.005c0-2.001-.214-5.555-1.466-9.621-1.37-4.457-3.865-7.06-3.68-7.324.17-.25 2.363.2 4.073 1.34 1.824 1.22 4.299 3.435 4.167 3.585-.08.093-.634-.037-1.743-.436-1.181-.427-2.383-.553-2.383-.553s1.896 2.725 2.866 6.134c.814 2.86 1.237 6.554 1.26 6.875h-3.094Zm22.691 0H32.75c.022-.32.446-4.015 1.26-6.875.971-3.409 2.866-6.134 2.866-6.134s-1.202.126-2.383.554c-1.11.4-1.662.528-1.743.436-.132-.15 2.343-2.364 4.167-3.584 1.71-1.141 3.903-1.59 4.072-1.341.186.264-2.308 2.866-3.679 7.324a33.272 33.272 0 0 0-1.465 9.62Zm0 7.005H32.75c0 1.232.856 1.927 2.063 1.995.322.019.67-.008 1.032-.08V30.99Zm-9.577-14.686c-.909-2.747-.737-8.33-.737-8.33s1.08.857 2.088 1.314c.625.286 1.874.906 2.036.657.125-.2-2.534-2.558-3.578-4.57C25.004 3.32 24.765.285 24.5 0c-.265.284-.503 3.32-1.578 5.377-1.044 2.011-3.704 4.369-3.578 4.569.162.249 1.411-.371 2.036-.657 1.008-.457 2.089-1.314 2.089-1.314s.172 5.583-.738 8.33c-1.325 4.68-3.159 7.374-3.388 7.681h3.094c.875-1.49 1.453-3.116 2.063-5.34.61 2.225 1.188 3.85 2.063 5.34h3.094c-.228-.307-2.063-3.002-3.388-7.68Z" fill="#D50000"></path></svg> 