<?xml version="1.0" encoding="UTF-8"?> <svg xmlns="http://www.w3.org/2000/svg" fill="none" viewBox="0 0 48 48"><g clip-path="url(#mazda__a)"><path d="M20.24 22.53A11.17 11.17 0 0 0 16.01 19l-.74-.38c.72.3 1.41.64 2.52 1.3 1.22.74 2.32 2.3 3.01 3.37l.26.4c-.27-.36-.54-.75-.82-1.15" fill="#43565C"></path><path fill-rule="evenodd" clip-rule="evenodd" d="M7.96 25.39c.05.4.11.87.2 1.39 3.03 10.65 6.55 11.44 15.21 11.84 6.73.31 10.58-1.44 12.85-3.64 2.27-2.2 2.97-4.85 3.36-6.37.29-1.1.48-2.15.56-3.22h4.83a17.77 17.77 0 0 1-3.4 9.71c-2.7 3.48-6.9 5.08-10.53 5.8-3.64.74-6.73.6-7.2.58-.47-.02-2.2 0-4.33-.19-2.14-.19-4.68-.6-6.77-1.5a16.52 16.52 0 0 1-6.91-5.45c-1.07-1.6-2.36-4.42-2.73-8.95h4.86Zm15.77 0c.15.21.26.34.32.35.04 0 .08-.04.15-.12l.16-.23h4.21c-.73.57-1.36 1.22-1.95 2a10.877 10.877 0 0 0-1.7 3.16c-.136.446-.334.87-.59 1.26-.06.1-.36.18-.46 0-.1-.1-.2-.3-.3-.56-.12-.33-.28-.86-.6-1.53-.3-.66-.78-1.46-1.53-2.34a15.883 15.883 0 0 0-2.03-2h4.32" fill="#657681"></path><path fill-rule="evenodd" clip-rule="evenodd" d="M3.1 25.39a32.3 32.3 0 0 1-.1-2.62v-.12c.03-4.3 1.91-8.19 3.28-9.86.19-.23.88-1.07 1.47-1.66 1.71-1.7 6.35-4.9 16.67-4.61 5.87.01 9.45.82 11.87 1.93 1.2.55 2.13 1.17 2.9 1.8.77.64 1.39 1.27 2 1.85l.02.02v.02c.01.01 2.93 3.7 3.6 8.93.17 1.44.24 2.89.16 4.32h-4.83c.09-1.1.06-2.2-.09-3.39-.1-.62-.2-1.1-.28-1.43l-.1.1s-.86.55-5.01 1.87c-2.76.87-4.62 1.7-6.09 2.85h-4.21l.03-.06c.15-.24.3-.53.44-.77.3-.53 1.25-1.94 2.58-3.26 1.3-1.28 4.44-2.8 6.75-3.7l1.16-.48c.95-.46 1.9-1.05 2.74-1.63a2.427 2.427 0 0 0-.16-.45l-.13-.3a6.507 6.507 0 0 0-.47-.78 9.671 9.671 0 0 0-2.37-2.32c-.54-.4-1.33-.84-2.36-1.32-2.05-.88-4.85-1.54-8.64-1.54-5.87 0-9.3 1.56-11.26 3.1a8.729 8.729 0 0 0-2.37 2.82l-.19.4c-.1.33.02.47.25.63l1.28.83c.56.29 1.33.65 2.32 1.04 2.3.9 5.44 2.42 6.74 3.7.98.98 1.83 2.083 2.53 3.28.14.24.3.53.46.76 0 .02.02.03.03.05H19.4c-.91-.75-1.86-1.31-2.8-1.67-1.66-.64-3.37-1.03-4.12-1.27a83.6 83.6 0 0 1-1.72-.57l-.09-.04a13.84 13.84 0 0 1-2.48-1.17h-.02l-.04.04-.03.06c-.05.07-.23 1.6-.26 3.39 0 0 .03.47.11 1.23H3.1Z" fill="#657681"></path><path d="M8.03 26.61c3.06 10.9 6.61 11.7 15.35 12.1 13.49.64 15.5-7.03 16.3-10.07.88-3.36.38-7.75.38-7.75l1.37 4.9-2.7 9.24-3.8 2.95-4.03 1.3-6.47.77-8.25-.78-4.67-2.47-2.35-3.54-.92-3.36s-.38-2.4-.2-3.29h-.01Z" fill="#CCC"></path><path d="M39.82 19.74s1.48 6.43-.88 11.56c-2.36 5.13-4.6 8.27-15.07 8.3-10.47.04-12.64-4.54-14.26-7.71C8 28.72 7.8 24.17 7.8 24.17l-.2 5.34 3 5.92 2.5 2.4 3.55 1.63 9.48.62 4.18-.62 4.46-1.18L39 34.55l1.68-6.4-.17-7.08c-.26-1.08-.5-1.53-.7-1.33h.01Z" fill="#666"></path><path d="m5.93 16.38.97.67s-.15 7.43-.18 7.55c-.03.13 0 4.15 0 4.15l1.24 5.1-.54.48-2.64-7.34.27-6.05.55-3.8.33-.76Z" fill="gray"></path><path d="M40.1 19.94s1.5 6.6-.76 11.69c-2.27 5.1-3.9 7.66-14.98 8.12-9 .24-11.33-2.22-13-4.01-1.3-1.42-2.22-3.79-2.22-3.79s-4.06-7.89-3.63-5.4c.57 3.26 1.47 7.94 4.96 10.87 2.14 1.8 6.46 2.9 6.46 2.9l6.76.57 6.05-.38 9.57-3.88 4.09-9.4c-.2-4.37-.6-7.99-1.2-10.85l-1.34 1.21-.75 2.35h-.01Z" fill="url(#mazda__b)"></path><path d="M6.34 13.56s-.18 1.98.24 3.15c-.57.95-1.32 3.83-1.42 6.14-.1 2.3.32 8.33 3.15 11.77l-.76 1.52S3.1 32.96 3.1 22.78c0-4.91 2.51-9.32 3.85-10.49-.41.6-.61 1.27-.61 1.27Z" fill="url(#mazda__c)"></path><path d="M3.42 24.73s.12 4.94 1.88 8.07c1.75 3.13 3.34 5.13 7.49 6.92s10.12 1.65 11.07 1.68c.94.03 12.32.57 17.65-6.34 3.06-4.15 3.86-9.06 3.22-13.97-.64-4.9-3-7.78-3-7.78s.32.9-.07 3.35c.58 1.06 1.52 4.57 1.34 7.37-.18 2.8-.67 6.61-2.7 9.6-1.3 1.9-2.34 3.25-5.19 4.65-2.85 1.4-7.21 2.1-11.16 2.04-3.94-.06-7.73-.38-10.92-1.91-3.19-1.53-4.88-3.86-6.1-5.7-1.21-1.86-.28-.92-1.76-2.46s-1.75-5.52-1.75-5.52Z" fill="#121113"></path><path d="M6.43 12.77s4.11-6.55 18-6.15c11.73.03 14.27 3.24 16.72 5.56.05.17-.98 1.05-.98 1.05l-1.68.66-4.84-3.99-8.6-1.97s-8.08 1.01-8.42.97C16.3 8.85 11 11.96 11 11.96l-.99 3.2-3.14-2.5-.44.1v.01Z" fill="#C9CDD1"></path><path d="M7.17 12.27s3.76-5.92 17.25-5.53c11.4.02 14.16 3.45 16.55 5.7-.76.7-1.56.6-1.56.6l-1.34.76-4.7-3.87L25.03 8s-7.86.98-8.18.94c-.33-.04-5.47 2.98-5.47 2.98L8.65 13.7 7 12.67l.17-.4Z" fill="#E6E6E6"></path><path d="M7.17 12.93s4.53-5.35 16.68-5.35c12.15 0 16.57 4.32 17.04 4.97-.53.72-1.48 1.48-1.48 1.48a58.607 58.607 0 0 0-8.76-4.87L23.3 8.02s-8.68 2.1-8.85 2.1c-.16 0-4.67 3.34-4.67 3.34s-.37.65-.7.57c-.94-.8-1.92-1.1-1.92-1.1h.01Z" fill="gray"></path><path d="M37.99 15.02S35.7 8.7 23.94 8.7c-11.76 0-13.8 6.24-13.8 6.24l-.56-1.04 2-2.88 5.3-2.55 3.69-.59 3.51-.18 4.51.25 3.55.8 4.9 2.6 2.66 2.22.19.22-1.9 1.22" fill="#2A2E33"></path><path d="M37.66 16s-1.14.79-3.45 1.7c-2.32.9-5.44 2.4-6.73 3.68a17.358 17.358 0 0 0-2.57 3.23c-.3.53-.67 1.3-.86 1.23l-.12 3.13.14.1 1.22-2.2 4.03-4.61 1.83-2.06 6.25-3.13.26-1.08V16Z" fill="#B3B3B3"></path><path d="M33.97 17.85c-.75.35-4.28 1.52-6.02 3.76-.6.77-1.64 2.78-1.93 3.27-.28.49-1.66 3.6-2 4.02-.34.43 1.8-1.81 1.8-1.81s5.77-5.4 5.9-5.48c.12-.08 2.18-2.02 2.18-2.02s.66-2 .07-1.74Z" fill="#121113"></path><path d="M41.35 13s-3.03 2.81-6.11 4.27c-3.08 1.46-6.93 2.85-9.23 8.17-1.75 3.25 2.73-2.91 2.73-2.91l2.36-1.78 5.47-2.56 2.8-1.89 1.98-3.3Z" fill="#333"></path><path d="M41.4 12.95s-2.16 2.28-5.19 4.08c-1 .6-3.67 1.82-4.9 2.5-2.7 1.51-4.1 4.16-4.54 4.7-.44.54-2.7 4.8-2.7 4.8l.97-.22 3.75-5.2 3.05-1.94 6.96-2.3 2.29-2s.55.3.71-2.42c.1-1.67-.4-2-.4-2Z" fill="#E6E6E6"></path><path d="m36.28 21.9-4.61 1.55-2.59 1.12-3.27 2.56s-.77 1.45-.84 1.76c-.06.3-.54 1.97-.54 1.97l-.06.55-.17.22-.14-.99.08-1.34.64-1.25.74-1.33 1.37-1.56 1.9-1.18L32 22.93l2.67-.73 1.6-.3h.01Z" fill="#333"></path><path d="M39.63 20.6s-.85.56-4.98 1.86c-4.13 1.31-6.28 2.5-8.08 4.9a10.96 10.96 0 0 0-1.72 3.18 4.82 4.82 0 0 1-.57 1.23c-.06.08-.33.12-.34-.05 0-.06.24.16.32-.47 0-.73.06-2.02.47-2.78a8.1 8.1 0 0 1 2.78-3.14c1.37-.86 3.13-1.6 4.29-2.03 1.15-.44 4.04-1.27 5.28-1.75 1.25-.47 2.82-1.19 2.82-1.19l-.27.25v-.01Z" fill="#999"></path><path d="M24.17 29.2s.07 2 0 2.2c-.06.22-.4-.1-.4-.1l-1.35-3.31-1.9-2.07-2.89-1.9-1.26-.52-2.04-.67-.83-.26-.17-.51 4.25 1.09 3.19 1.75 1.64 1.61 1.21 1.75.55.93v.01Z" fill="#B3B3B3"></path><path d="M10.5 16s1.13.79 3.45 1.7c2.31.9 5.43 2.4 6.72 3.68a16.15 16.15 0 0 1 2.5 3.26c.31.52.74 1.27.93 1.2.03.45.12 3.13.12 3.13l-.14.1-1.22-2.2-4.02-4.61L17 20.2l-6.24-3.13-.26-1.08V16Z" fill="#CCC"></path><path d="m23.66 28.32-1.65-2.17-3-2.7-9.52-3.91-2.9-2.76s-.68-2.34-.26-3.2c-.01-.28.47-1.7.65-1.26.5.53 1.09 1.31 3.1 2.7-.17.43 0 .62.25.8l1.3.84 1.7.98 3.32 1.76 1.75 1.16 1.71 1.9 1.29 1.66 1.38 1.9L24.2 29l-.54-.68Z" fill="#E6E6E6"></path><path d="M9.78 33.28c-.74-.54-1.66-1-2.56-1.6-.72-.49-1.3-2.5-1.58-4.18-1-5.98.99-10.38.99-10.38s.03-.1 0-.14c-.15-.14-.05-.39.18-.23 2.55 1.78 3.2 1.8 5.2 2.77 2.85 1.4 5.84 1.39 9.01 4.75 1.52 1.6 3.02 4.75 3.2 4.72l-.07 1.8s.08-1.43-.35-2.15c-1.75-2.9-4.32-4.1-4.32-4.1s-2.22-1.22-5.69-1.92c-1.49-.3-3.62-.86-5.48-1.99-.15-.1-.2.02-.26.1a26 26 0 0 0-.09 6.77c.39 2.4.91 3.7 1.82 5.78Z" fill="#1A1A1A"></path><path d="M7 12.34s1.12 1.39 3.02 2.68c-.8-.3-1.15-.36-1.87-.93C7.67 13.7 7 12.34 7 12.34Z" fill="#3C444B"></path><path d="M41.12 12.28s-.88 1-1.47 1.47l-1.6 1.23 1.82-.94 1.25-1.76Z" fill="#121113"></path><path d="M8.45 13.59s1.6-2.33 4.25-3.69A17.84 17.84 0 0 1 18.8 8c1.58-.25 4.8-.31 5.04-.32h.02c.26 0 3.65.07 5.24.32 1.64.25 3.44.49 6.1 1.85a15.3 15.3 0 0 1 4.56 3.8s-.67.17-1.08.52c-.41.36-.56.2-.56.2s-.04-.98-1.28-2.4c-1.25-1.42-3.17-2.26-5.65-3.2-2.4-.9-7.02-.93-7.33-.93h-.02c-.3 0-4.73.03-7.13.94-2.49.93-3.93 2-5.18 3.42-1.24 1.43-1.5 2.87-1.5 2.87s-.4-.54-.81-.9c-.41-.35-.78-.58-.78-.58h.01Z" fill="#1A1A1A"></path><path fill-rule="evenodd" clip-rule="evenodd" d="m21.06 23.69-.81-1.16A11.17 11.17 0 0 0 16 18.98l-.74-.37c.72.3 1.41.65 2.52 1.31 1.22.73 2.31 2.29 3 3.37.1.13.18.26.27.4h.01ZM6.66 13.04c.21.25 1.93 1.78 4.76 3.72 2.9 1.98 6.26 2.41 8.7 5.88 1.89 2.7 2.08 2.4 3.8 5.74-.32-.95-.66-1.61-1.09-2.32-.43-.7-1.2-1.8-1.9-2.87-.69-1.08-1.8-2.67-3.06-3.42a19.761 19.761 0 0 0-2.8-1.44c-.82-.34-2.16-.89-3.45-1.67a42.601 42.601 0 0 1-4.96-3.62Z" fill="#3C444B"></path><path d="M24.29 29.02a14.52 14.52 0 0 1 5.08-6.53c1.48-1.13 2.55-1.34 4.24-2.05 1.13-.46 1.8-.61 2.92-1.1 2.04-.87 2.95-1.3 5.05-2.66.15.52-.94 2.57-1.72 3.76a32.868 32.868 0 0 1-6.55 2.22c-1.48.359-2.926.847-4.32 1.46-2.66 1.13-3.44 2.53-4.7 4.9Z" fill="#1A1A1A"></path><path d="M23.58 28.89c.41.86.6 1.62.6 2.39 0 .76-.27.63-.52-.05s-.63-2.12-2.15-3.9a12.56 12.56 0 0 0-4.86-3.68c-1.65-.65-3.37-1.03-4.13-1.27-.75-.24-1.82-.61-1.82-.61l1.89.5s4.27 1 6.71 2.52c2.44 1.51 3.62 2.74 4.28 4.1Z" fill="#CCC"></path><path d="M6.33 13.56c-.09.12-2.47 3.22-3.23 9.22 0-4.65 2.26-8.96 3.63-10.4-.19.31-.4.98-.4 1.18Z" fill="#C9CDD1"></path><path d="M10.03 15.05s-.6-.83-1.35-1.45c-.76-.62-1.33-.88-1.33-.88s.42.54 1.27 1.25c.84.7 1.41 1.08 1.41 1.08Z" fill="#121113"></path><path d="M7.35 12.73s.48.16 1.19.75c0 0 1.5-2.15 3.74-3.35a19.1 19.1 0 0 1 7.48-2.26s-3.74.14-7.54 2.17c-2.15 1.15-3.7 3.26-3.7 3.26-.38-.29-.77-.48-1.17-.58v.01Z" fill="#C9CDD1"></path><path d="M23.87 7.58c.28 0 3.66.05 5.25.3.83.13 1.7.25 2.69.51 1 .26 2.11.67 3.46 1.35a14.05 14.05 0 0 1 4.27 3.47l.3.36-.07.09s-1.88-2.45-4.55-3.81C32.55 8.49 30.75 8.25 29.1 8c-1.59-.25-5.24-.42-5.24-.42h.01Z" fill="#F2F2F2"></path><path d="M14 37.24c5.28 2.63 15.86 2.47 20.4 0-4.77 3.02-15.18 3.17-20.4 0Z" fill="#E6E6E6"></path><path d="M39.56 31.34h1.83s-2 5.47-7.6 7.38c-2.34.8-5.85.84-5.85.84 6.4-.4 9.7-2.55 11.62-8.22Z" fill="#CCC"></path><path d="M25.15 27.23s1.67-3.7 5.64-5.78c1.04-.55 2.79-1 2.79-1l-1.02.41c-1.14.43-2.04.75-3.2 1.63a14.051 14.051 0 0 0-4.18 4.71l-.03.03Z" fill="#fff"></path><path d="M24.56 28.86s.77-3.6 6.28-5.32c-3.51 1.4-5.08 2.62-6.28 5.32Z" fill="#B3B3B3"></path><path d="M23.99 31.52a2.202 2.202 0 0 1-.16-.36c-.13-.34-.29-.88-.6-1.55-.33-.68-.81-1.5-1.58-2.4a16.229 16.229 0 0 0-2-1.98c2.13 1.38 3.17 2.51 3.77 3.74a5.2 5.2 0 0 1 .57 2.55Z" fill="#E6E6E6"></path><path d="m38 15.04.12.4s.64-.36 1.78-1.3l1.5-1.2s.33.27 1.49 2.26c0 0-.36-1.17-1.67-2.9l-1.34 1.72L38 15.04Z" fill="#ECECEC"></path><path d="M19.99 22.46c-1.85-2.09-3.15-2.56-5.51-3.45a6.74 6.74 0 0 1-3.38-2.48l.32.23c2.84 1.94 6.14 2.4 8.57 5.7Z" fill="#666"></path><path d="m14.17 22.7.5.11c1.4.34 2.54.74 3.37 1.07.7.33 1.5.77 2.35 1.35 3.51 2.36 3.53 4.33 3.53 4.33s-.05-1.36-2.2-3.24c-2.15-1.9-5.83-3.1-6.92-3.43l-.63-.2v.01Z" fill="gray"></path></g><defs><radialGradient id="mazda__c" cx="0" cy="0" r="1" gradientUnits="userSpaceOnUse" gradientTransform="rotate(-38.152 34.74 4.632) scale(9.58065 5.99365)"><stop stop-color="#fff"></stop><stop offset="1" stop-color="#919191"></stop></radialGradient><linearGradient id="mazda__b" x1="38.87" y1="18.33" x2="38.46" y2="34.36" gradientUnits="userSpaceOnUse"><stop stop-color="#999"></stop><stop offset="1" stop-color="#D7D7D7"></stop></linearGradient><clipPath id="mazda__a"><path fill="#fff" transform="translate(3 6)" d="M0 0h42v36H0z"></path></clipPath></defs></svg> 