<?xml version="1.0" encoding="UTF-8"?> <svg xmlns="http://www.w3.org/2000/svg" fill="none" viewBox="0 0 48 48"><path d="M45.519 24c0 11.894-9.625 21.519-21.52 21.519-11.893 0-21.518-9.625-21.518-21.519C2.481 12.106 12.106 2.481 24 2.481c11.894 0 21.519 9.625 21.519 21.519ZM23.999 3.788A20.157 20.157 0 0 0 3.788 24c0 11.206 9.075 20.212 20.213 20.212 11.206 0 20.212-9.075 20.212-20.212A20.157 20.157 0 0 0 24 3.788Z" fill="url(#mercedes__a)"></path><path d="M24 3.788A20.158 20.158 0 0 0 3.787 24c0 11.206 9.075 20.212 20.213 20.212 11.206 0 20.212-9.075 20.212-20.212A20.157 20.157 0 0 0 24 3.788Zm0 39.118C13.55 42.906 5.094 34.45 5.094 24S13.55 5.094 24 5.094 42.906 13.55 42.906 24 34.45 42.906 24 42.906Z" fill="url(#mercedes__b)"></path><path opacity=".4" d="M24 45.519c11.894 0 21.519-9.625 21.519-21.519 0-11.894-9.625-21.519-21.519-21.519C12.106 2.481 2.481 12.106 2.481 24c0 11.894 9.625 21.519 21.519 21.519ZM24 2c12.1 0 22 9.9 22 22s-9.9 22-22 22S2 36.1 2 24 11.9 2 24 2Z" fill="url(#mercedes__c)"></path><path d="M3.512 24.069C3.512 12.794 12.656 3.513 24 3.513s20.487 9.212 20.487 20.556c0 11.275-9.143 20.418-20.487 20.418-11.344 0-20.488-9.143-20.488-20.418ZM9.906 9.906C6.262 13.55 3.994 18.57 3.994 24.07s2.268 10.518 5.843 14.094C13.481 41.738 18.5 44.005 24 44.005s10.519-2.2 14.094-5.843c3.643-3.575 5.843-8.594 5.843-14.094S41.67 13.55 38.094 9.906A19.733 19.733 0 0 0 24 3.994c-5.5 0-10.519 2.269-14.094 5.912Z" fill="#fff"></path><path opacity=".4" d="M24 42.975c-5.087 0-9.831-1.994-13.406-5.569C7.019 33.831 5.025 29.087 5.025 24s1.994-9.831 5.569-13.406C14.169 7.019 18.913 5.025 24 5.025c5.088 0 9.831 1.994 13.406 5.569 3.575 3.575 5.57 8.319 5.57 13.406s-1.995 9.831-5.57 13.406c-3.575 3.575-8.318 5.569-13.406 5.569Zm0-.55c4.881 0 9.556-1.925 12.994-5.362 3.506-3.507 5.362-8.113 5.362-12.994s-1.925-9.556-5.362-12.994C33.488 7.569 28.88 5.712 24 5.712a18.365 18.365 0 0 0-12.994 5.363C7.5 14.444 5.576 19.119 5.576 24s1.924 9.556 5.362 12.994c3.506 3.506 8.18 5.431 13.062 5.431Z" fill="url(#mercedes__d)"></path><path d="M40.706 32.938c-.344-.276-13.612-10.794-13.612-10.794L24 4.475a1.174 1.174 0 0 0-.619.55l-2.2 17.187L7.5 32.733s-.275.343-.412.55c-.07.137-.07.343-.07.55l16.913-6.945 16.913 6.944c.137-.344 0-.687-.138-.894Z" fill="#fff"></path><path d="M24.137 24.55 24 27.712l15.538 6.257c.55.275.962.137 1.375-.138l-16.57-9.35c-.068-.069-.206 0-.206.069Z" fill="#565F64"></path><path d="M24.137 24.55s.894 1.581 1.925 2.681c1.444 1.581 3.37 2.681 3.37 2.681l10.106 4.057c.55.275.962.137 1.375-.138l-16.57-9.35c-.068-.069-.206 0-.206.069Z" fill="url(#mercedes__e)"></path><path d="M40.844 33.212c0-.068-.069-.137-.138-.275l-14.162-10.38-1.925 1.237s.137.069.206 0a1.72 1.72 0 0 1 1.031 0c.344.137 14.988 9.487 14.988 9.418 0 .07 0 .07 0 0Z" fill="#A4AAAE" fill-opacity=".6"></path><path d="m40.362 32.594-13.2-10.45-.618.412 14.162 10.45c-.069-.137-.206-.275-.344-.412Z" fill="#333E46"></path><path d="m24.344 23.519-.069.069s0 .137.138.068c.068-.069 2.062-1.1 2.75-1.512l-2.407-16.5c-.068-.619-.343-.894-.825-1.1l.275 19.112.138-.137Z" fill="#565F64"></path><path d="M23.175 5.644v.894L21.663 21.73c0 .206.068.413.275.55l.893.688.62-16.775.068-1.306c-.206.137-.275.412-.344.756Zm-.825 17.6-.825-.688L7.57 32.663s-.413.275-.481.55l.48-.276 14.645-9.212c.275-.138.343-.275.137-.481Z" fill="#A4AAAE" fill-opacity=".6"></path><path d="M23.794 24.55c0-.069-.069-.137-.138-.069L7.02 33.9c.412.275.825.344 1.375.138L23.93 27.78l-.137-3.231Z" fill="#565F64"></path><path d="m24.275 23.587.069-.068-.069.069s0 .068.069.068h.069c.068-.069 2.062-1.1 2.75-1.512l-.275-1.994-2.132-14.506c0-.275-.068-.482-.206-.619 0 0 1.031 13.888 1.031 15.4 0 1.994-1.306 3.162-1.306 3.162Z" fill="url(#mercedes__f)"></path><path d="M23.794 24.55c0-.069-.069-.137-.138-.069L7.02 33.9c.412.275.825.344 1.375.138L23.93 27.78l-.137-3.231Z" fill="url(#mercedes__g)" fill-opacity=".8"></path><path opacity=".8" d="m8.394 33.969 15.537-6.257-.137-3.024c-.275.825-.756 1.718-2.063 2.406-.962.55-10.175 5.087-13.475 6.669-.206.137-.481.206-.619.275.275.137.482.068.757-.07Z" fill="url(#mercedes__h)"></path><path d="m24.344 23.519-.069.069s0 .137.138.068c.068-.069 2.062-1.1 2.75-1.512l-2.407-16.5c-.068-.619-.343-.894-.825-1.1l.275 19.112.138-.137Z" fill="url(#mercedes__i)"></path><path d="m24.344 23.519-.069.069s0 .137.138.068c.068-.069 2.062-1.1 2.75-1.512l-2.407-16.5c-.068-.619-.343-.894-.825-1.1l.275 19.112.138-.137Z" fill="url(#mercedes__j)"></path><path d="M5.506 32.525c-.481-1.1-3.231-6.462-.206-16.775H4.131c-.619 2.063-1.1 3.3-1.375 5.156 0 0-.137.688-.206 1.444-.069.756-.069 1.169-.069 1.65 0 4.125 1.031 6.531 1.031 6.531 1.1 3.438 3.025 6.532 5.638 8.869 2.269 1.994 5.775 3.506 8.662 4.056-.48-.069-8.73-3.575-12.306-10.931Z" fill="url(#mercedes__k)"></path><path d="M24.275 24.413h-.619c.069 0 .138 0 .138.068l.137 3.163H24l.137-3.163c0-.069.07-.137.138-.069Z" fill="url(#mercedes__l)"></path><path d="M30.875 3.581C38.094 6.331 44.9 13.894 44.9 23.45 44.9 35 35.688 44.419 24 44.419v1.1c11.688 0 21.519-9.625 21.519-21.519 0-9.488-6.05-17.463-14.644-20.419Z" fill="url(#mercedes__m)"></path><path d="M42.425 15.887C37.612 4.82 26.75 4.2 26.131 4.131h-.069c8.32 1.513 13.613 6.944 15.47 12.65v.069c.824 2.2 1.237 4.537 1.306 7.081.068 2.406-.482 5.088-1.513 7.563-.069.343-.138.756-.206.756h1.1c3.3-6.188 1.856-12.444.206-16.363Z" fill="url(#mercedes__n)"></path><path d="M3.512 24.069C3.512 12.794 12.656 3.513 24 3.513s20.487 9.212 20.487 20.556c0 11.275-9.143 20.418-20.487 20.418-11.344 0-20.488-9.143-20.488-20.418ZM9.906 9.906C6.262 13.55 3.994 18.57 3.994 24.07s2.268 10.518 5.843 14.094C13.481 41.738 18.5 44.005 24 44.005s10.519-2.2 14.094-5.843c3.643-3.575 5.843-8.594 5.843-14.094S41.67 13.55 38.094 9.906A19.733 19.733 0 0 0 24 3.994c-5.5 0-10.519 2.269-14.094 5.912Z" fill="#FBFBFB"></path><path d="m7.431 32.8 14.025-10.106c.757.412 1.994.962 2.132.962.137.069.137-.069.137-.069l-1.719-1.443c-.206-.138-.275-.344-.275-.55l1.65-16.569c-.068.069-.068.206-.137.275-.069.137-.069.206-.069.344L20.77 22.212 7.57 32.594c-.069.069-.138.137-.138.206Z" fill="#333F47"></path><defs><linearGradient id="mercedes__a" x1="7.499" y1="10.18" x2="40.501" y2="37.82" gradientUnits="userSpaceOnUse"><stop stop-color="#fff"></stop><stop offset=".1" stop-color="#CDD0D0"></stop><stop offset=".2" stop-color="#A5ACAF"></stop><stop offset=".3" stop-color="#98A0A4"></stop><stop offset=".4" stop-color="#828A8F"></stop><stop offset=".5" stop-color="#667075"></stop><stop offset=".6" stop-color="#535C63"></stop><stop offset=".7" stop-color="#475158"></stop><stop offset=".8" stop-color="#434D54"></stop><stop offset="1" stop-color="#475157"></stop></linearGradient><linearGradient id="mercedes__b" x1="8.511" y1="10.978" x2="39.449" y2="36.966" gradientUnits="userSpaceOnUse"><stop stop-color="#0B1F2A"></stop><stop offset=".2" stop-color="#333F47"></stop><stop offset=".5" stop-color="#81898D"></stop><stop offset=".7" stop-color="#B3B8B8"></stop><stop offset=".8" stop-color="#DEE0DD"></stop><stop offset="1" stop-color="#FBFBFB"></stop></linearGradient><linearGradient id="mercedes__c" x1="31.519" y1="44.668" x2="16.463" y2="3.281" gradientUnits="userSpaceOnUse"><stop stop-color="#E1E3E1"></stop><stop offset=".1" stop-color="#C1C5C4"></stop><stop offset=".3" stop-color="#9BA1A2"></stop><stop offset=".5" stop-color="#7D8487"></stop><stop offset=".7" stop-color="#687074" stop-opacity="0"></stop><stop offset=".8" stop-color="#5B6469" stop-opacity="0"></stop><stop offset="1" stop-color="#576065" stop-opacity="0"></stop></linearGradient><linearGradient id="mercedes__d" x1="14.513" y1="7.569" x2="33.487" y2="40.431" gradientUnits="userSpaceOnUse"><stop stop-color="#E1E3E1"></stop><stop offset=".1" stop-color="#C1C5C4"></stop><stop offset=".3" stop-color="#9BA1A2"></stop><stop offset=".5" stop-color="#7D8487"></stop><stop offset=".7" stop-color="#687074" stop-opacity="0"></stop><stop offset=".8" stop-color="#5B6469" stop-opacity="0"></stop><stop offset="1" stop-color="#576065" stop-opacity="0"></stop></linearGradient><linearGradient id="mercedes__e" x1="32.586" y1="29.083" x2="31.417" y2="31.008" gradientUnits="userSpaceOnUse"><stop stop-color="#27343C"></stop><stop offset="1" stop-color="#00111E" stop-opacity="0"></stop></linearGradient><linearGradient id="mercedes__f" x1="29.211" y1="22.015" x2="27.286" y2="18.921" gradientUnits="userSpaceOnUse"><stop offset=".1" stop-color="#02131F"></stop><stop offset=".9" stop-color="#02131F" stop-opacity="0"></stop></linearGradient><linearGradient id="mercedes__g" x1="23.988" y1="26.981" x2="21.1" y2="27.806" gradientUnits="userSpaceOnUse"><stop offset=".2" stop-color="#02131F"></stop><stop offset=".9" stop-color="#02131F" stop-opacity="0"></stop></linearGradient><linearGradient id="mercedes__h" x1="16.294" y1="30.809" x2="15.881" y2="29.778" gradientUnits="userSpaceOnUse"><stop stop-color="#02131F"></stop><stop offset=".1" stop-color="#02131F"></stop><stop offset="1" stop-color="#02131F" stop-opacity="0"></stop></linearGradient><linearGradient id="mercedes__i" x1="26.477" y1="13.835" x2="24.139" y2="14.11" gradientUnits="userSpaceOnUse"><stop offset=".3" stop-color="#02131F"></stop><stop offset=".8" stop-color="#02131F" stop-opacity="0"></stop></linearGradient><linearGradient id="mercedes__j" x1="26.549" y1="13.795" x2="24.967" y2="14.002" gradientUnits="userSpaceOnUse"><stop offset=".4" stop-color="#27343C"></stop><stop offset="1" stop-color="#3B474E" stop-opacity="0"></stop></linearGradient><linearGradient id="mercedes__k" x1="1.752" y1="24.571" x2="20.934" y2="35.64" gradientUnits="userSpaceOnUse"><stop stop-color="#25323B" stop-opacity="0"></stop><stop offset=".1" stop-color="#27343C"></stop></linearGradient><linearGradient id="mercedes__l" x1="23.966" y1="27.712" x2="23.966" y2="24.413" gradientUnits="userSpaceOnUse"><stop offset=".3" stop-color="#A5ABAF"></stop><stop offset="1" stop-color="#A5ABAF" stop-opacity="0"></stop></linearGradient><linearGradient id="mercedes__m" x1="34.759" y1="3.581" x2="34.759" y2="45.519" gradientUnits="userSpaceOnUse"><stop stop-color="#6B7378"></stop><stop offset=".2" stop-color="#333F47"></stop><stop offset=".5" stop-color="#27343C"></stop><stop offset=".8" stop-color="#333F47"></stop><stop offset="1" stop-color="#434D54"></stop></linearGradient><linearGradient id="mercedes__n" x1="41.386" y1="7.564" x2="32.105" y2="21.176" gradientUnits="userSpaceOnUse"><stop offset=".7" stop-color="#49545B"></stop><stop offset=".8" stop-color="#fff" stop-opacity="0"></stop></linearGradient></defs></svg> 