<?xml version="1.0" encoding="UTF-8"?> <svg xmlns="http://www.w3.org/2000/svg" fill="none" viewBox="0 0 48 48"><path d="M24 13.004c-1.768 0-3.507.444-5.058 1.292a10.513 10.513 0 0 0-3.812 3.558H0l1.506 1.502h12.838a10.476 10.476 0 0 0-.577 1.75H3.26l1.49 1.484h8.774c-.029.303-.044.606-.047.91.003.28.017.561.042.84H6.504l1.488 1.485h5.755c.133.598.32 1.184.555 1.75H9.747l1.506 1.502h3.846a10.512 10.512 0 0 0 3.815 3.604A10.545 10.545 0 0 0 24 33.996a10.54 10.54 0 0 0 8.901-4.919h3.846l1.506-1.502h-4.555c.236-.566.422-1.152.555-1.75h5.755l1.488-1.484h-7.014c.025-.28.04-.56.042-.84a10.476 10.476 0 0 0-.047-.91h8.774l1.488-1.485H34.234a10.55 10.55 0 0 0-.578-1.75h12.838L48 17.854H32.87a10.514 10.514 0 0 0-3.813-3.558A10.547 10.547 0 0 0 24 13.004Zm0 1.422a9.118 9.118 0 0 1 6.433 2.658 9.073 9.073 0 0 1 2.664 6.416 9.052 9.052 0 0 1-2.664 6.416A9.1 9.1 0 0 1 24 32.574a9.11 9.11 0 0 1-6.433-2.658 9.062 9.062 0 0 1-2.665-6.416c0-2.406.959-4.714 2.665-6.416A9.11 9.11 0 0 1 24 14.426Zm-7.237 6.722v4.704h.983v-3.703l1.038 3.703h1.019l1.04-3.703v3.703h.984v-4.704H20.24l-.94 3.209-.952-3.209h-1.584Zm6.09 0v4.704h1.06v-4.704h-1.06Zm2.075 0v4.704h.984v-3.067l2.114 3.067h1.062v-4.704h-.984v3.141l-2.146-3.14h-1.03Zm5.25 0v4.704h1.06v-4.704h-1.06Z" fill="#120A08"></path></svg> 