<?xml version="1.0" encoding="UTF-8"?> <svg xmlns="http://www.w3.org/2000/svg" fill="none" viewBox="0 0 48 48"><g clip-path="url(#nissan__a)" fill="#000"><path d="M27.806 25.518c-.036.01-.182.01-.246.01h-4.71v1.08h4.792c.037 0 .32 0 .374-.008.977-.09 1.424-.892 1.424-1.595 0-.721-.465-1.496-1.35-1.577-.174-.018-.32-.018-.384-.018h-3.13c-.137 0-.293-.01-.347-.027-.247-.063-.338-.28-.338-.46 0-.162.091-.378.347-.45a1.32 1.32 0 0 1 .328-.027h4.518v-1.064h-4.59c-.192 0-.338.01-.457.027-.785.108-1.333.73-1.333 1.523 0 .649.411 1.406 1.315 1.532.164.018.392.018.493.018h3.048c.055 0 .192 0 .219.01.347.044.465.296.465.522 0 .216-.136.45-.438.504Zm-8.926 0c-.036.01-.182.01-.237.01h-4.719v1.08h4.792c.036 0 .32 0 .374-.008.977-.09 1.424-.892 1.424-1.595 0-.721-.466-1.496-1.35-1.577-.174-.018-.32-.018-.384-.018h-3.13a1.69 1.69 0 0 1-.348-.027c-.246-.063-.337-.28-.337-.46a.46.46 0 0 1 .347-.45 1.32 1.32 0 0 1 .328-.027h4.518v-1.064h-4.591c-.192 0-.338.01-.456.027-.785.108-1.333.73-1.333 1.523 0 .649.41 1.406 1.314 1.532.165.018.393.018.493.018h3.049c.055 0 .191 0 .219.01.347.044.465.296.465.522 0 .216-.128.45-.438.504Zm-7.411-4.172h-1.186v5.29h1.186v-5.29Zm-3.806 5.29v-5.29H6.477v3.947l-3.952-3.947H1v5.29h1.187V22.67l3.98 3.965h1.496Zm38.16-5.29v3.947l-3.952-3.947h-1.524v5.29h1.186V22.67l3.97 3.965h1.498v-5.29h-1.178Zm-11.655 0-3.34 5.29h1.442l.593-.946h3.897l.593.946h1.433l-3.34-5.29h-1.278Zm1.98 3.343h-2.674l1.342-2.126 1.332 2.126ZM7.6 18.346C9.99 11.452 16.58 6.82 24.01 6.82c7.429 0 14.028 4.632 16.41 11.526l.018.054h5.23v-.622l-2.172-.252c-1.342-.154-1.625-.74-1.99-1.478l-.091-.18C38.275 9.27 31.439 5 24.01 5 16.57 5 9.743 9.271 6.604 15.886l-.09.18c-.366.739-.649 1.324-1.99 1.478l-2.173.252v.622h5.22l.028-.072Zm32.838 11.245-.018.054c-2.391 6.894-8.981 11.517-16.41 11.517-7.43 0-14.029-4.632-16.41-11.526l-.02-.054H2.36v.622l2.172.252c1.342.154 1.625.74 1.99 1.478l.091.18C9.753 38.73 16.59 43 24.02 43c7.429 0 14.265-4.271 17.405-10.877l.091-.18c.365-.739.648-1.324 1.99-1.478l2.172-.252v-.622h-5.239Z"></path></g><defs><clipPath id="nissan__a"><path fill="#fff" transform="translate(1 5)" d="M0 0h46v38H0z"></path></clipPath></defs></svg> 