<?xml version="1.0" encoding="UTF-8"?> <svg xmlns="http://www.w3.org/2000/svg" fill="none" viewBox="0 0 48 48"><path d="M23.995 13C11.85 13 2 17.924 2 24s9.85 11 21.995 11C36.14 35 46 30.076 46 24s-9.85-11-22.005-11Z" fill="#E6E7E8"></path><path d="M24 13.87C12.327 13.87 2.866 18.406 2.866 24c0 5.594 9.46 10.13 21.134 10.13 11.673 0 21.134-4.536 21.134-10.13 0-5.594-9.46-10.13-21.134-10.13Z" fill="url(#range-rover__a)"></path><path d="M24 15.08c-10.939 0-19.807 4.034-19.807 9.01 0 4.975 8.868 9.01 19.807 9.01 10.939 0 19.807-4.035 19.807-9.01 0-4.976-8.868-9.01-19.807-9.01Z" stroke="#004E24" stroke-width=".145"></path><path d="M24 14.55c-11.23 0-20.334 4.241-20.334 9.459 0 5.226 9.103 9.458 20.334 9.458 11.23 0 20.343-4.24 20.343-9.458-.01-5.218-9.112-9.458-20.343-9.458Z" stroke="#F5F0CC" stroke-width=".275"></path><path d="M36.2 19.706h-3.323l-.405 1.156h2.147l-2.448.843-.16.466 3.775-1.228.414-1.237Zm-20.842 1.936-.452 1.228h-3.238s.075-.027.179-.233c.103-.206 1.6-4.357 1.6-4.357s.207-.439-.028-.547h1.873s-.103-.026-.282.413c-.104.25-1.356 3.586-1.356 3.586h1.356s.31.027.348-.09Zm5.328 1.228h1.525s-.103-.152-.037-.322c.084-.233.894-2.43.894-2.43l.358 2.752h1.384l1.807-4.895s.075-.233.179-.233h-1.469s.038.17-.01.296c-.056.135-.884 2.35-.884 2.35l-.33-2.646h-1.581s.085.135.028.27c-.047.116-1.675 4.572-1.675 4.572s-.095.286-.189.286Zm8.708-5.128h-1.732s.132.207-.038.69c-.17.485-1.496 4.053-1.496 4.053s-.104.34-.245.403h2.09s2.532.099 3.313-2.555c-.01-.009.98-2.617-1.892-2.59Zm.188 2.806c-.442 1.076-1.101 1.148-1.45 1.148h-.244l1.016-2.85h.396c-.01 0 1.007-.055.282 1.703Zm-20.23 6.464h3.323l.405-1.156h-2.156l2.457-.843.16-.466-3.775 1.237-.414 1.228Zm9.461-1.076c.621-1.99-1.478-1.936-1.478-1.936h-2.156c.16.17.038.538.038.538l-1.44 4.106a1.51 1.51 0 0 1-.292.493h1.704c-.057 0-.057-.17-.057-.17l.612-1.614s.763 1.488.82 1.587c.046.107.027.188.027.188h1.817c-.179 0-.358-.332-.358-.332l-.903-1.622c1.252.018 1.666-1.238 1.666-1.238Zm-1.487-.179c-.236.511-.885.448-.885.448h-.33l.348-1.03h.358c.782 0 .509.582.509.582ZM37.612 26c.669-2.089-1.459-1.981-1.459-1.981h-2.137c.16.17.038.538.038.538l-1.497 4.115a1.351 1.351 0 0 1-.301.484h1.779c-.132 0-.038-.314-.038-.314l.546-1.47s.735 1.488.791 1.587c.057.107.028.188.028.188h1.883c-.179 0-.367-.332-.367-.332l-.904-1.622C37.236 27.21 37.612 26 37.612 26Zm-1.506-.215c-.198.493-.838.448-.838.448h-.33l.35-1.022h.47s.574-.018.348.574Zm-13.914-1.918c-1.666 0-2.748 1.255-3.03 2.814-.255 1.435.555 2.582 1.9 2.582 1.884 0 3.004-1.837 3.004-3.155 0-1.38-.574-2.241-1.873-2.241Zm.245 2.86c-.273 1.075-.79 1.407-1.252 1.326-.64-.116-.527-1.103-.423-1.56.226-.995.781-1.47 1.195-1.425.132.018.885.036.48 1.658Zm2.071-2.708s.132.072.132.394v4.447s-.019.242-.113.296h1.393s0-.108.142-.278c.14-.17 3.04-4.052 3.04-4.052s.66-.816.838-.816h-2.005s.16.107.038.296c-.123.188-1.902 2.842-1.902 2.842l.028-2.672s0-.43.17-.466l-1.76.009Zm8.454 1.21.452-1.21h-3.39s.123.107-.037.538l-1.534 4.115s-.245.484-.311.484h3.492l.415-1.228s-.057.071-.386.071h-1.478l.31-.833h1.158s.245-.018.292.053l.47-1.317s-.037.116-.347.116h-1.111l.33-.914h1.411c0 .009.189-.018.264.125ZM20.507 22.88s-.122-.071-.15-.278l-.207-4.518s-.01-.287.132-.35h-1.657s.113.144-.104.467c-.226.322-3.05 4.5-3.05 4.5s-.056.108-.198.17h1.676s-.01-.125.038-.215c.075-.152.282-.51.282-.51h1.685v.448s.01.16-.113.277h1.666v.01Zm-2.513-1.891.932-1.506.01 1.506h-.942Z" fill="#F5F0CC"></path><defs><linearGradient id="range-rover__a" x1="18.443" y1="12.653" x2="28.689" y2="35.727" gradientUnits="userSpaceOnUse"><stop stop-color="#008948"></stop><stop offset=".042" stop-color="#008847"></stop><stop offset=".096" stop-color="#008244"></stop><stop offset=".157" stop-color="#00793F"></stop><stop offset=".222" stop-color="#006A37"></stop><stop offset=".291" stop-color="#00572B"></stop><stop offset=".319" stop-color="#004E24"></stop><stop offset="1"></stop></linearGradient></defs></svg> 